<?xml version="1.0" encoding="UTF-8"?>
<svg viewBox="0 0 640 480" xmlns="http://www.w3.org/2000/svg">
 <g fill="#fc0" fill-rule="evenodd" stroke="#000" stroke-miterlimit="10" stroke-width=".036">
  <path d="m180.38 176.31c-9.0657-0.19675-15.945-2.6053-21.002-7.4265-5.3301-4.9674-8.2001-13.181-9.2935-21.394-0.9567-8.5085 0.82002-20.706 3.5989-27.885 2.6878-7.0823 7.0157-11.115 12.619-14.558 5.3757-3.6395 11.662-5.656 20.09-6.7872 8.3824-1.2296 18.496-1.5246 30.34-0.68854l-3.0067-10.033c-13.485-1.4755-25.238-1.2787-35.443 0.98364-10.387 2.0657-18.86 5.7544-25.785 12-7.0156 6.3445-12.984 15.935-15.626 25.575-2.6423 9.5906-2.9611 21.344-0.27333 31.082 2.5056 9.4922 6.2412 19.624 15.58 25.625 9.2935 5.7543 22.277 8.9512 39.634 9.3938-3.7812-5.2625-7.6079-10.574-11.435-15.887z"/>
  <path d="m22.623 73.618h11.435l2.6878 4.869c5.0112-0.098358 9.1568 0 12.619 0.29509 3.4167 0.19673 5.6945 0.39346 8.0635 1.3279 2.2778 0.93447 4.1912 2.2624 5.7401 4.1805 15.261-1.1804 25.238-0.63938 30.295 1.623 4.8745 2.164 4.8289 9.3446-0.3189 11.656-5.1934 2.2132-15.17 2.7542-30.295 1.623-1.5489 1.8197-3.4623 3.2952-5.7401 4.2297-2.3689 0.83609-4.6467 0.88527-8.0635 1.2787-3.4623 0.14754-7.6079 0.44264-12.619 0.34429l-2.6878 4.869h-11.435c-4.3734-6.0002-6.2868-11.705-6.2868-17.853 0.045561-6.197 2.1867-12.099 6.6057-18.443z"/>
  <polygon points="327.67 157.18 443.06 157.18 443.06 172.08 327.67 172.08"/>
  <polygon points="327.67 180.24 443.06 180.24 443.06 195.15 327.67 195.15"/>
  <path d="m452.49 157.28c2.2322-0.39346 4.3747-0.2951 6.6069 0.2951 2.1399 0.49182 4.5999 1.4755 6.5146 2.9509 1.7741 1.4263 3.3712 3.246 4.5999 5.6573 1.2313 2.3102 1.9602 5.1628 2.3702 8.3596 0.044312 3.0998-0.36572 7.1328-1.2313 9.9854-0.86557 2.6545-2.0045 4.574-3.7812 6.3445-2.0488 1.5246-4.5999 2.7556-7.4712 3.4933-2.9144 0.73775-6.1045 0.98364-9.7478 0.93446l1.1389-15.246c2.4587 0.14751 4.5088-0.04921 5.9666-0.39348 1.5046-0.34428 2.4144-1.0328 2.9168-1.8689 0.36322-1.0328 0.22778-3.0985-0.41-3.9346-0.72888-0.93446-2.3234-1.4755-3.7343-1.623-1.5502-0.2951-3.2358-0.24728-5.2403 0.14616 0.50116-5.0193 0.9997-10.034 1.5021-15.1z"/>
  <path d="m453.31 156.49c1.1389 0.93582 1.7767 2.164 2.0956 4.2788 0.1835 1.9181-0.18347 5.4592-0.54666 7.5755-0.54916 2.0165-1.2755 3.5411-2.3702 4.574h-11.98s2.1399-3.9838 2.5512-8.0659c0.41128-4.0821-0.86557-8.2626-0.86557-8.2626 3.6913 0 7.3814-0.04921 11.116-0.099731z"/>
  <path d="m453.31 179.51c1.1389 0.88391 1.7767 2.261 2.0956 4.328 0.1835 1.9168-0.18347 5.4593-0.54666 7.5741-0.54916 2.0164-1.2755 3.5411-2.3702 4.5739h-11.98s2.1399-4.0329 2.5512-8.1137c0.41003-4.0822-0.86557-8.2148-0.86557-8.2148 3.6913-0.050568 7.3814-0.098373 11.116-0.14755z"/>
  <polygon points="349.26 153.98 417.73 153.98 417.73 155.9 349.26 155.9"/>
  <polygon points="402.7 151.03 415.59 151.03 415.59 157.87 402.7 157.87"/>
  <polygon points="407.57 146.8 410.72 146.8 410.72 151.23 407.57 151.23"/>
  <polygon points="404.93 145.52 413.59 145.52 413.59 147.49 404.93 147.49"/>
  <path d="m461.42 193.72l2.3233 3.0001c-0.86554 0.68854-1.5033 1.3279-1.9133 1.9181-0.41003 0.54098-0.63779 1.0328-0.50116 1.4754 0.77319 0.68857 1.6413 1.3279 2.4145 1.9168 0.6821 0.59157 1.6388 1.1804 2.3234 1.3785 0.59354 0.047791 1.1845-0.2473 1.5945-0.88528 1.4578 0.14754 3.1433-0.34428 5.2402-1.2788 2.1399-1.082 4.691-2.2624 7.1056-4.6737 2.1398-2.5561 4.2367-6.0494 6.1045-10.476 1.8691-0.34427 2.6891-1.082 2.9612-1.8198 0.046814-0.93446-0.45428-1.8676-2.0045-3.1968 0.54666-3.1477 0.22775-6.3445-0.9567-9.7873-1.3667-3.492-5.4668-10.132-6.3323-10.82-0.77316-0.88391 0.9567 3.5411 1.6856 6.0508 0.63782 2.41 1.411 6.0494 1.821 8.6561 0.18347 2.4591 0 4.574-0.54669 6.3445l-10.66-2.164-1.2756 4.9182 10.158 2.067c-0.36322 2.7542-1.1845 4.9674-2.4588 6.8364-1.2743 1.8689-3.0523 3.0001-5.1479 3.9838 0.22784-0.59155 0.091156-1.2296-0.22778-1.7214-0.36572-0.73775-1.5034-1.2295-2.0045-1.4755-0.68463-0.14755-1.3224-0.24727-1.9134 0.24593l-2.8245-3.0001c-0.41003 0.24728-0.95666 0.59157-1.821 1.0328-0.86682 0.39208-1.9121 0.8853-3.1434 1.4741z"/>
  <polygon points="365.39 200.12 425.75 200.12 425.75 202.03 365.39 202.03"/>
  <polygon points="414.77 194.06 422.06 194.06 422.06 205.23 414.77 205.23"/>
  <polygon points="364.2 197.26 367.8 197.26 367.8 205.57 364.2 205.57"/>
  <polygon points="369.35 197.36 372.54 197.36 372.54 205.72 369.35 205.72"/>
  <polygon points="404.57 194.06 411.86 194.06 411.86 205.23 404.57 205.23"/>
  <path d="m261.11 46.912v6.4921l5.2845 0.541v15.001c-1.7767 0-3.1433 0.29508-4.6012 0.68855-1.4578 0.39345-2.7334 1.082-3.8267 1.8689v7.4757l0.9567 1.1312c-0.045502 2.8034-0.045502 15.345 0 38.559-0.045502 23.214-0.045502 55.968 0 99.594l-1.64 0.6394v7.5741c0.27332 0.63934 1.3667 1.2787 2.7789 1.7213 1.5489 0.44267 4.0545 0.88527 6.1046 1.1312 2.0045 0.098358 3.5989 0.14619 5.4667-0.049164 2.5511-0.3443 4.6012-0.73776 6.1501-1.1804 1.5034-0.44127 2.3689-1.082 2.7789-1.7214v-7.5741l-1.64-0.5901c-0.045532-43.772-0.045532-76.282 0-99.643-0.045532-23.214-0.045532-35.756 0-38.559l0.9567-1.1312v-7.4757c-1.1845-0.8361-2.46-1.3771-3.8267-1.8197-1.5034-0.44264-2.8701-0.68856-4.6012-0.73773v-14.804l5.2846-0.7377v-6.4921c-1.6401-0.54101-3.4623-0.78693-5.2846-0.93446-1.9134-0.098366-4.2367-0.098366-5.9223 0.19672-1.7767 0.098362-3.189 0.44264-4.419 0.83611z"/>
  <polygon points="259.56 72.782 259.88 72.782 259.88 78.143 259.56 78.143"/>
  <polygon points="261.57 73.175 261.88 73.175 261.88 78.536 261.57 78.536"/>
  <polygon points="263.3 73.274 263.62 73.274 263.62 78.635 263.3 78.635"/>
  <polygon points="266.08 73.569 266.4 73.569 266.4 78.979 266.08 78.979"/>
  <polygon points="268.58 73.569 268.86 73.569 268.86 78.979 268.58 78.979"/>
  <polygon points="271.18 73.372 271.45 73.372 271.45 78.782 271.18 78.782"/>
  <polygon points="273.87 72.979 274.14 72.979 274.14 78.34 273.87 78.34"/>
  <polygon points="276.51 72.536 276.83 72.536 276.83 77.946 276.51 77.946"/>
  <path d="m262.25 49.47c0.27332 0.24592 1.4578 0.63936 3.7356 0.63936 2.3234 0 5.3301-0.098358 9.7035-0.29508v1.9673c-0.91113 0.19673-2.3233 0.39346-4.0545 0.39346-1.8678 0-5.0567 0.19673-6.6056-0.19673-1.6401-0.49181-2.5056-1.3279-2.7789-2.5083z"/>
  <path d="m268.86 56.109c-0.18222 1.6722-0.18222 9.1479 0 10.869 0.045593 1.623 0.36444 0.8361 0.59226-0.8361 0.18219-1.8197 0.36441-7.9184 0.36441-9.5414-0.13663-1.7214-0.86554-2.2624-0.95666-0.49182z"/>
  <path d="m271.27 89.701c-0.22778 0.29509-0.59228 10.476-0.41006 18.001 0 7.3773 0.13672 24.985 0.95673 26.263 0.82001 0.93443 3.3712-13.132 3.9634-19.427 0.4556-6.3445-0.59219-18.738-0.86551-18.001-0.27335 0.68854-0.59228 20.46-0.9567 22.132-0.63779 1.3771-1.5489-8.0167-2.0045-12.837-0.54672-4.9674-0.54672-16.476-0.68332-16.132z"/>
  <polygon points="259.24 220.33 259.52 220.33 259.52 225.69 259.24 225.69"/>
  <polygon points="261.61 221.16 261.93 221.16 261.93 226.53 261.61 226.53"/>
  <polygon points="264.3 221.76 264.62 221.76 264.62 227.16 264.3 227.16"/>
  <polygon points="267.08 222 267.4 222 267.4 227.36 267.08 227.36"/>
  <polygon points="270.27 222.1 270.54 222.1 270.54 227.46 270.27 227.46"/>
  <polygon points="273.32 222 273.59 222 273.59 227.36 273.32 227.36"/>
  <polygon points="276.01 221.56 276.28 221.56 276.28 226.97 276.01 226.97"/>
  <polygon points="278.28 220.62 278.6 220.62 278.6 226.03 278.28 226.03"/>
  <path d="m289.17 46.912v6.4921l5.2845 0.541v15.001c-1.7767 0-3.1434 0.29508-4.6012 0.68855-1.4578 0.39345-2.7334 1.082-3.8267 1.8689v7.4757l0.9567 1.1312c-0.045563 2.8034-0.045563 15.345 0 38.559-0.045563 23.214-0.045563 55.968 0 99.594l-1.64 0.6394v7.5741c0.27332 0.63934 1.3667 1.2787 2.7789 1.7213 1.5489 0.44267 4.0545 0.88527 6.1046 1.1312 2.0044 0.098358 3.5989 0.14619 5.4667-0.049164 2.5512-0.3443 4.6012-0.73776 6.1502-1.1804 1.5034-0.44127 2.3689-1.082 2.7789-1.7214v-7.5741l-1.64-0.5901c-0.045502-43.772-0.045502-76.282 0-99.643-0.045502-23.214-0.045502-35.756 0-38.559l0.9567-1.1312v-7.4757c-1.1844-0.8361-2.46-1.3771-3.8267-1.8197-1.5033-0.44264-2.87-0.68856-4.6011-0.73773v-14.804l5.2845-0.7377v-6.4921c-1.64-0.54101-3.4622-0.78693-5.2844-0.93446-1.9134-0.098366-4.2368-0.098366-5.9223 0.19672-1.7767 0.098362-3.189 0.44264-4.419 0.83611z"/>
  <polygon points="287.62 72.782 287.94 72.782 287.94 78.143 287.62 78.143"/>
  <polygon points="289.67 73.175 289.95 73.175 289.95 78.536 289.67 78.536"/>
  <polygon points="291.36 73.274 291.68 73.274 291.68 78.635 291.36 78.635"/>
  <polygon points="294.14 73.569 294.46 73.569 294.46 78.979 294.14 78.979"/>
  <polygon points="296.64 73.569 296.92 73.569 296.92 78.979 296.64 78.979"/>
  <polygon points="299.24 73.372 299.51 73.372 299.51 78.782 299.24 78.782"/>
  <polygon points="301.93 72.979 302.2 72.979 302.2 78.34 301.93 78.34"/>
  <polygon points="304.62 72.536 304.89 72.536 304.89 77.946 304.62 77.946"/>
  <path d="m290.31 49.47c0.27335 0.24592 1.4578 0.63936 3.7356 0.63936 2.3234 0 5.3301-0.098358 9.7035-0.29508v1.9673c-0.9111 0.19673-2.3234 0.39346-4.0545 0.39346-1.8678 0-5.0567 0.19673-6.6056-0.19673-1.64-0.49181-2.5056-1.3279-2.779-2.5083z"/>
  <path d="m296.92 56.109c-0.18222 1.6722-0.18222 9.1479 0 10.869 0.045563 1.623 0.36444 0.8361 0.59228-0.8361 0.18219-1.8197 0.36441-7.9184 0.36441-9.5414-0.13669-1.7214-0.8656-2.2624-0.9567-0.49182z"/>
  <path d="m299.33 89.701c-0.27332 0.29509-0.45554 10.476-0.36438 18.001 0 7.3773 0.1366 24.985 0.95664 26.263 0.72888 0.93443 3.3256-13.132 3.9179-19.427 0.4555-6.3445-0.59226-18.738-0.86563-18.001-0.27335 0.68854-0.59222 20.46-0.95666 22.132-0.63776 1.3771-1.5489-8.0167-2.0045-12.837-0.54666-4.9674-0.54666-16.476-0.68338-16.132z"/>
  <polygon points="287.3 220.33 287.58 220.33 287.58 225.69 287.3 225.69"/>
  <polygon points="289.72 221.16 289.99 221.16 289.99 226.53 289.72 226.53"/>
  <polygon points="292.36 221.76 292.68 221.76 292.68 227.16 292.36 227.16"/>
  <polygon points="295.14 222 295.46 222 295.46 227.36 295.14 227.36"/>
  <polygon points="298.33 222.1 298.6 222.1 298.6 227.46 298.33 227.46"/>
  <polygon points="301.38 222 301.66 222 301.66 227.36 301.38 227.36"/>
  <polygon points="304.07 221.56 304.34 221.56 304.34 226.97 304.07 226.97"/>
  <polygon points="306.39 220.62 306.67 220.62 306.67 226.03 306.39 226.03"/>
  <path d="m315.5 46.912v6.4921l5.239 0.541v15.001c-1.7768 0-3.1434 0.29508-4.6012 0.68855-1.4578 0.39345-2.7334 1.082-3.8268 1.8689v7.4757l0.9567 1.1312c-0.045563 2.8034-0.045563 15.345 0 38.559-0.045563 23.214-0.045563 55.968 0 99.594l-1.64 0.6394v7.5741c0.36447 0.63934 1.23 1.2787 2.7789 1.7213 1.4578 0.44267 4.1457 0.88527 6.1501 1.1312 1.9134 0.098358 3.7357 0.14619 5.4668-0.049164 2.6423-0.3443 4.5101-0.73776 6.1046-1.1804 1.3666-0.44127 2.4587-1.082 2.7776-1.7214v-7.5741l-1.5944-0.5901c-0.044373-43.772-0.044373-76.282 0-99.643-0.044373-23.214-0.044373-35.756 0-38.559l0.9566-1.1312v-7.4757c-1.1845-0.8361-2.4588-1.3771-3.8255-1.8197-1.5034-0.44264-2.8701-0.68856-4.6024-0.73773v-14.804l5.2402-0.7377v-6.4921c-1.6856-0.54101-3.3711-0.78693-5.2402-0.93446-2.0956-0.098366-4.1444-0.098366-5.9666 0.19672-1.7767 0.098362-3.2345 0.44264-4.3734 0.83611z"/>
  <polygon points="313.96 72.782 314.23 72.782 314.23 78.143 313.96 78.143"/>
  <polygon points="315.96 73.175 316.23 73.175 316.23 78.536 315.96 78.536"/>
  <polygon points="317.69 73.274 317.96 73.274 317.96 78.635 317.69 78.635"/>
  <polygon points="320.47 73.569 320.74 73.569 320.74 78.979 320.47 78.979"/>
  <polygon points="322.93 73.569 323.25 73.569 323.25 78.979 322.93 78.979"/>
  <polygon points="325.53 73.372 325.85 73.372 325.85 78.782 325.53 78.782"/>
  <polygon points="328.22 72.979 328.49 72.979 328.49 78.34 328.22 78.34"/>
  <polygon points="330.9 72.536 331.18 72.536 331.18 77.946 330.9 77.946"/>
  <path d="m316.64 49.47c0.27335 0.24592 1.4578 0.63936 3.7356 0.63936 2.1867 0 5.4655-0.098358 9.658-0.29508v1.9673c-0.9567 0.19673-2.2323 0.39346-4.009 0.39346-1.8678 0-5.0567 0.19673-6.6056-0.19673-1.64-0.49181-2.5056-1.3279-2.7789-2.5083z"/>
  <path d="m323.25 56.109c-0.18222 1.6722-0.18222 9.1479 0 10.869 0.091095 1.623 0.27338 0.8361 0.54669-0.8361 0.18347-1.8197 0.31888-7.9184 0.40997-9.5414-0.13663-1.7214-0.86557-2.2624-0.95666-0.49182z"/>
  <path d="m325.62 89.701c-0.27463 0.29509-0.45428 10.476-0.36319 18.001 0 7.3773 0.13544 24.985 0.9567 26.263 0.72888 0.93443 3.3244-13.132 3.9178-19.427 0.45428-6.3445-0.59348-18.738-0.86557-18.001-0.2746 0.68854-0.59351 20.46-0.9567 22.132-0.63779 1.3771-1.5502-8.0167-2.0045-12.837-0.54919-4.9674-0.54919-16.476-0.6846-16.132z"/>
  <polygon points="313.64 220.33 313.91 220.33 313.91 225.69 313.64 225.69"/>
  <polygon points="316.01 221.16 316.28 221.16 316.28 226.53 316.01 226.53"/>
  <polygon points="318.69 221.76 318.97 221.76 318.97 227.16 318.69 227.16"/>
  <polygon points="321.47 222 321.75 222 321.75 227.36 321.47 227.36"/>
  <polygon points="324.62 222.1 324.94 222.1 324.94 227.46 324.62 227.46"/>
  <polygon points="327.71 222 327.99 222 327.99 227.36 327.71 227.36"/>
  <polygon points="330.4 221.56 330.68 221.56 330.68 226.97 330.4 226.97"/>
  <polygon points="332.68 220.62 332.95 220.62 332.95 226.03 332.68 226.03"/>
  <path d="m306.76 144.93c-0.8656 0.39343-1.5034 0.98498-2.0956 1.9673-0.68332 0.78691-1.5489 2.0165-1.3667 3.4919 0.18219 1.4755 0.82001 3.3936 2.2778 5.5576 0.59226-0.73776 1.3668-1.4263 2.3234-1.6736 0.8656-0.44128 2.0045-0.63937 3.2345-0.3921 1.2756 0.24593 2.6423 0.73636 4.2823 1.6722 1.23-1.8198 1.7311-3.5411 1.5034-5.3609-0.22784-1.8689-1.3667-3.6887-3.0523-5.4592-0.18219 1.3771-0.86554 2.4591-1.6856 2.8526-0.91116 0.49181-2.9156 0.049133-3.7357-0.19815-0.86551-0.53824-1.5489-1.2268-1.6855-2.4577z"/>
  <path d="m279.29 145.47c-0.77448 0.39349-1.64 0.98366-2.0956 1.966-0.72888 0.78688-1.4578 2.0178-1.3211 3.4933 0.13669 1.4755 0.9567 3.3922 2.2778 5.5562 0.54669-0.73775 1.3667-1.4263 2.2779-1.6722 0.86557-0.44267 2.0045-0.63939 3.2345-0.39348 1.2756 0.24593 2.6423 0.73775 4.2823 1.6722 1.3212-1.8198 1.7767-3.5411 1.5489-5.3609-0.27332-1.8689-1.23-3.6887-3.0522-5.4593-0.31891 1.5247-0.77448 2.3622-1.7312 2.9018-0.9111 0.34428-2.9156 0.19809-3.7356-0.24594-0.86551-0.54097-1.5489-1.2295-1.6855-2.4577z"/>
  <path d="m305.89 204.64c-0.77444 0.39346-1.64 0.98364-2.0956 1.9673-0.72888 0.78691-1.4578 2.0165-1.3211 3.4919 0.13669 1.4754 0.9567 3.3936 2.2779 5.5576 0.54663-0.73778 1.3667-1.4263 2.2778-1.6736 0.86554-0.44127 2.0045-0.63937 3.2345-0.39345 1.23 0.14752 2.7334 0.68991 4.3278 1.623 1.23-1.8197 1.7312-3.5903 1.5034-5.3117-0.22778-1.8689-1.3667-3.6887-3.0523-5.4592-0.27332 1.3771-0.91113 2.4591-1.7312 2.8526-1.0022 0.49046-2.8245 0.049194-3.69-0.19809-0.86554-0.53825-1.5033-1.2268-1.7311-2.4564z"/>
  <path d="m278.88 204.3c-0.86557 0.39346-1.5034 0.98364-2.0956 1.9673-0.68335 0.78555-1.5489 2.0165-1.3667 3.4919 0.13666 1.4755 0.91113 3.3936 2.3234 5.5576 0.54666-0.7377 1.3667-1.4262 2.2778-1.6735 0.86557-0.44266 2.0044-0.63937 3.2345-0.39349 1.2756 0.14757 2.6422 0.68858 4.2823 1.623 1.23-1.8198 1.7312-3.5903 1.5034-5.3117-0.27335-1.8689-1.2755-3.6886-3.0067-5.4592-0.31891 1.3771-0.77448 2.4591-1.7311 2.8526-0.91116 0.49045-2.9156 0.049179-3.7357-0.1981-0.86557-0.53827-1.5489-1.2268-1.6856-2.4564z"/>
  <path d="m305.98 175.72c-1.0023 0.541-1.8223 1.1312-2.4601 2.3116-0.77444 1.0328-1.7767 2.2132-1.5945 4.1299 0.13672 1.7228 1.0934 3.9838 2.6879 6.5904 0.68332-0.98366 1.5945-1.5738 2.7334-1.9659 1.0478-0.49184 2.3234-0.78694 3.8267-0.49184 1.4578 0.24593 3.1434 0.8361 5.0568 1.9659 1.5489-2.164 2.0956-4.2789 1.8222-6.3445-0.31891-2.2624-1.4578-4.2297-3.5989-6.4429-0.31891 1.6722-1.0022 2.8034-2.05 3.3922-1.23 0.39345-3.28 0.2473-4.3734-0.24591-1.139-0.63664-1.8223-1.4236-2.05-2.899z"/>
  <path d="m193.09 85.618l-1.2756 9.8365c44.827 2.1148 82.229 3.7379 114.48 5.0658 31.979 1.1804 47.014 1.1312 76.58 2.5083 29.565 1.3771 73.391 3.5411 99.496 5.7051 25.784 1.9181 39.224 3.8362 54.894 6.6888 15.582 2.705 28.428 6.492 37.857 10.427 9.1126 3.884 13.075 8.5085 16.992 13.327 3.8735 4.6723 3.2358 9.9348 6.1957 15.197 2.9168 5.2134 6.6512 16.427 10.842 16.181 3.9621-0.44127 9.887-10.524 13.21-18.099 3.0989-7.6711 4.6466-17.902 6.0602-26.901 1.3199-8.9512 2.2322-17.755 2.3677-26.608 0.31891-9.7873 0.22772-19.132-0.31897-28.526-0.54651-9.3938-0.86548-19.624-2.9168-27.247-2.0932-7.6232-6.2856-15.492-9.3846-18.05-3.0966-2.5575-6.2856-0.2951-9.11 2.8526-2.7778 3.1477-5.4669 11.509-7.5637 15.837-2.0488 4.2788-1.1844 5.951-4.6911 9.8364-3.5065 3.8854-5.0123 9.4922-16.127 13.279-11.206 3.787-24.647 6.8855-50.203 9.1971-25.695 2.2624-68.836 3.3444-102.18 4.4264-33.302 1.082-56.626 1.082-96.125 1.9181-39.586 0.83611-85.142 1.8689-139.08 3.1477z"/>
  <path d="m352.31 54.339l-0.82 2.8034c-2.1399 0.59019-4.0089 1.5247-6.2855 3.3444-2.3234 1.623-5.7856 4.1313-6.879 6.9347-1.2313 2.8526-1.1389 6.738 0.27212 9.7381 1.3667 2.8526 2.7802 5.4101 8.4279 7.279 5.6502 1.7214 13.804 2.8034 24.966 3.246 0.31891-1.3771 1.001-2.5575 2.0488-3.3444 1.0035-0.88528 2.3702-1.5738 4.1001-1.8689l0.2746-1.9673c-3.4623 0-7.3802 0.049164-11.936 0.14754-4.6936 0.098358-11.48 0.63937-15.445 0.098358-4.0089-0.7869-6.8334-2.4099-8.4722-4.328-1.7324-2.0657-2.0513-5.115-1.6856-7.279 0.2721-2.164 1.2287-3.6395 3.5521-5.5576 2.2348-2.1148 5.3757-4.0821 9.6149-6.4429 0.13541-1.1804 0.22781-1.9673 0.091125-2.5575-0.32144-0.68854-0.72894-1.1312-1.0478-1.1312-0.27588-0.098354-0.59473 0.19673-0.77698 0.88528z"/>
  <polygon points="202.84 157.18 248.76 157.18 248.76 172.08 202.84 172.08"/>
  <path d="m246.71 156.49c-0.8656 0.93582-1.3667 2.164-1.5034 4.2788-0.22777 1.9181-0.045563 5.4592 0.36444 7.5755 0.36446 2.0165 0.95666 3.5411 1.7767 4.574h7.2434l1.5945-0.9358c2.0956-0.097015 3.5534-0.5902 4.8745-1.082 1.0478-0.541 1.7767-1.4741 2.369-2.41 0.54669-1.1312 1.64-2.5083 1.5033-3.9346-0.22772-1.5738-1.0022-3.6887-2.5055-4.8198-1.549-1.2788-3.6445-1.8198-6.469-2.1641l-1.7767-1.082h-7.4712z"/>
  <polygon points="202.84 180.24 248.76 180.24 248.76 195.15 202.84 195.15"/>
  <path d="m246.71 179.51c-0.8656 0.88391-1.3667 2.261-1.5034 4.328-0.22777 1.9168-0.045563 5.4593 0.36444 7.5741 0.36446 2.0164 0.95666 3.5411 1.7767 4.5739h7.2434l1.5945-0.9344c2.0956-0.098373 3.5534-0.59158 4.8745-1.082 1.0478-0.68854 1.7767-1.3785 2.369-2.4605 0.54669-1.179 1.64-2.4099 1.5033-3.8854-0.22772-1.5247-1.0022-3.7857-2.5055-4.8677-1.549-1.2801-3.6445-1.8198-6.469-2.1641l-1.7767-1.082h-7.4712z"/>
  <path d="m194.92 157.28c-2.2322-0.39346-4.5101-0.2951-6.6512 0.2951-2.3234 0.49182-4.6012 1.4755-6.469 2.9509-2.05 1.4263-3.4167 3.246-4.6467 5.6573-1.2756 2.3102-2.2323 5.1628-2.3689 8.3596-0.22777 3.0998 0.36444 7.1328 1.2756 9.9854 0.68333 2.6545 1.8678 4.574 3.7356 6.3445 1.9134 1.5246 4.4645 2.7556 7.4712 3.4933 2.8701 0.73775 6.059 0.98364 9.7491 0.93446l-1.0934-15.246c-2.5967 0.14751-4.6012-0.04921-6.0134-0.39348-1.5489-0.34428-2.5056-1.0328-2.87-1.8689-0.50113-1.0328-0.31892-3.0985 0.36443-3.9346 0.59226-0.93446 2.1867-1.4755 3.7356-1.623 1.5034-0.2951 3.189-0.24728 5.239 0.14616-0.45557-5.0193-0.95671-10.034-1.4578-15.1z"/>
  <path d="m194.05 156.49c-1.1389 0.93582-1.8222 2.164-2.05 4.2788-0.41002 1.9181 0.045547 5.4592 0.50111 7.5755 0.45557 2.0165 1.3211 3.5411 2.4145 4.574h11.981s-2.1411-3.9838-2.5967-8.0659c-0.41-4.0821 0.86558-8.2626 0.86558-8.2626-3.6901 0-7.3801-0.04921-11.116-0.099731z"/>
  <path d="m194.05 179.51c-1.1389 0.88391-1.8222 2.261-2.05 4.328-0.41002 1.9168 0.045547 5.4593 0.50111 7.5741 0.45557 2.0164 1.3211 3.5411 2.4145 4.5739h11.981s-2.1411-4.0329-2.5967-8.1137c-0.41-4.0822 0.86558-8.2148 0.86558-8.2148-3.6901-0.050568-7.3801-0.098373-11.116-0.14755z"/>
  <path d="m275.96 157.28c-2.5056-0.39346-5.0568-0.2951-7.4712 0.2951-2.5056 0.49182-5.2845 1.4755-7.289 2.9509-2.1867 1.4263-3.9178 3.246-5.1934 5.6573-1.4578 2.3102-2.46 5.1628-2.6422 8.3596-0.2278 3.0998 0.36444 7.1328 1.4122 9.9854 0.82001 2.6545 2.0956 4.574 4.1912 6.3445 2.0501 1.5246 5.1023 2.7556 8.428 3.4933 3.1889 0.73775 6.8334 0.98364 10.934 0.93446l-1.2756-15.246c-2.8701 0.14751-5.0568-0.04921-6.7423-0.39348-1.6856-0.34428-2.6878-1.0328-3.1889-1.8689-0.5011-1.0328-0.36447-3.0985 0.40997-3.9346 0.77448-0.93446 2.4145-1.4755 4.1912-1.623 1.6856-0.2951 3.5989-0.24728 5.9223 0.14616-0.54672-5.0193-1.0934-10.034-1.6856-15.1z"/>
  <path d="m276.51 156.49c-0.86551 0.93582-1.5489 2.164-1.6856 4.2788-0.22781 1.9181-0.091125 5.4592 0.41 7.5755 0.41003 2.0165 1.0022 3.5411 1.9589 4.574h8.1546l1.8222-0.9358c2.2778-0.097015 4.1001-0.5902 5.4668-1.082 1.23-0.541 1.959-1.4741 2.6879-2.41 0.68332-1.1312 1.7767-2.5083 1.6855-3.9346-0.27332-1.5738-1.0933-3.6887-2.8245-4.8198-1.7767-1.2788-4.1456-1.8198-7.289-2.1641l-1.9589-1.082h-8.428z"/>
  <path d="m276.51 179.51c-0.86551 0.88391-1.5489 2.261-1.6856 4.328-0.22781 1.9168-0.091125 5.4593 0.41 7.5741 0.41003 2.0164 1.0022 3.5411 1.9589 4.5739h8.1546l1.8222-0.9344c2.2778-0.098373 4.1001-0.59158 5.4668-1.082 1.23-0.68854 1.959-1.3785 2.6879-2.4605 0.68332-1.179 1.7767-2.4099 1.6855-3.8854-0.27332-1.5247-1.0933-3.7857-2.8245-4.8677-1.7767-1.2801-4.1456-1.8198-7.289-2.1641l-1.9589-1.082h-8.428z"/>
  <polygon points="87.951 84.291 473.95 84.291 473.95 99.193 87.951 99.193"/>
  <polygon points="332.64 176.06 472.44 176.06 472.44 190.97 332.64 190.97"/>
  <path d="m337.96 174.98c0.82004 0.88532 1.3224 2.2624 1.5034 4.328 0.1835 1.9673-0.18091 5.3609-0.40741 7.5249-0.32147 2.0178-0.95926 3.4933-1.7325 4.6245h-7.2447l-1.6388-0.985c-2.0513-0.096985-3.5989-0.59018-4.829-1.082-1.23-0.541-1.9134-1.4754-2.4145-2.4099-0.72891-1.1804-1.6856-2.4099-1.4578-3.8854 0.091125-1.5246 0.9111-3.787 2.46-4.869 1.5489-1.2787 3.5521-1.8198 6.5133-2.164l1.7324-1.082h7.5155z"/>
  <path d="m482.7 84.438c2.3234-0.44265 5.3756-0.24592 9.52 0.59016 3.9622 0.63938 10.158 1.1804 14.896 4.2789 4.7846 3.0493 10.114 6.5904 13.349 14.607 2.9611 8.1151 5.101 22.23 5.01 33.049-0.2721 10.574-2.2766 22.181-5.511 30.298-3.2358 7.9184-6.9258 13.328-13.529 17.361-6.8335 3.8854-15.445 5.9497-26.515 6.1956l-2.2323-14.755c8.3836 1.0328 15.035-0.098373 20.455-3.1968 5.42-3.3936 9.11-9.443 11.573-15.886 2.0956-6.4921 2.7334-14.41 2.2766-22.23-0.36322-8.1137-1.8666-19.131-4.5088-24.885-2.9612-5.6068-6.8334-7.0822-11.619-8.8036-4.7822-1.8689-9.9756-2.6067-16.264-2.2132 1.0035-4.7707 2.0526-9.5905 3.1004-14.41z"/>
  <path d="m482.88 83.602c1.0946 0.93446 1.869 2.164 2.1424 4.2788 0.2721 1.9181-0.13794 5.4592-0.54919 7.5741-0.59097 2.0165-1.3641 3.5411-2.5044 4.5739h-12.665s2.2765-4.033 2.7334-8.0659c0.45425-4.0821-0.91238-8.2626-0.91238-8.2626 3.9204 0 7.8382-0.049179 11.755-0.098328z"/>
  <path d="m482.88 175.28c1.0946 0.88525 1.869 2.2624 2.1424 4.328 0.2721 1.8689-0.13794 5.5084-0.54919 7.5263-0.59097 2.0165-1.3641 3.5411-2.5044 4.574h-12.665s2.2765-3.9838 2.7334-8.0659c0.45425-4.0808-0.91238-8.2134-0.91238-8.2134 3.9204-0.049179 7.8382-0.099716 11.755-0.1489z"/>
  <polygon points="455.86 98.111 464.2 98.111 464.2 112.13 455.86 112.13"/>
  <polygon points="455.86 163.13 464.2 163.13 464.2 177.15 455.86 177.15"/>
  <polygon points="457.28 111.73 462.1 111.73 462.1 164.26 457.28 164.26"/>
  <path d="m516.14 173.8c0.6377 0.8853 1.5034 1.5738 2.4145 2.067 0.81744 0.44127 1.8665 0.68852 2.9612 0.73772 1.0009 1.1312 0.81738 2.5083-0.54669 4.13-1.4136 1.623-4.0115 3.4933-7.7902 5.6068 0.088562-0.93582-0.13788-1.623-0.68457-2.067-0.54672-0.44127-1.5945-0.63936-2.7777-0.59018l-1.0477-0.541-6.5601 3.5411 0.6821 1.3279c-0.31891 0.24591-0.54669 0.73772-0.68207 1.4755-0.23035 0.68854-0.59354 1.8197-0.36572 2.6558 0.046753 0.73776 0.63773 1.2282 1.4134 1.4755 0.72891-0.049179 2.0045-0.24727 3.4598-1.1312 2.5537 1.082 5.606 0.59016 9.1568-1.4755 3.509-2.3621 8.3836-6.0986 11.983-11.412 3.5065-5.3609 7.3801-14.755 9.1568-20.016 1.6856-5.4593 1.092-10.968 0.86554-11.412-0.31891-0.24593-0.95666 5.2639-2.9611 9.3446-2.2323 3.8376-5.2846 8.4594-9.7036 13.869-0.68457-0.73773-1.5502-1.3771-2.5979-1.7214-1.139-0.44266-2.4589-0.68854-3.9622-0.73775-0.77576 1.6257-1.5958 3.2501-2.4132 4.8718z"/>
  <path d="m277.83 88.619c18.086-0.049179 13.302-0.098373 32.39 0.44266 19.179 0.34428 68.243 1.2787 81.819 2.2624 13.21 0.93446 18.495 3.3936-2.0513 3.5903-21.046 0.049179-90.474-2.705-121.32-3.1477-30.705-0.541-35.671 0.049179-61.455 0.44264-26.195 0.39346-91.34 2.1148-92.662 1.7706-0.86559-0.541 59.36-4.1313 86.83-4.9182 27.425-0.98364 57.993-0.49184 76.444-0.44266z"/>
  <path d="m391.22 184.13c4.51-0.49184 51.16-0.49184 56.491 0 5.0099 0.44266-16.765 2.6067-26.149 2.7037-9.6124-0.097-34.67-2.261-30.342-2.7037z"/>
  <path d="m364.66 165.74c4.5101-0.49184 51.16-0.49184 56.491 0 4.829 0.44263-16.674 2.6067-26.194 2.7037-9.6592-0.097-34.577-2.261-30.298-2.7037z"/>
  <path d="m210.09 166.52c2.4145-0.24728 27.926-0.24728 30.842 0 2.6423 0.2459-9.1568 1.3771-14.305 1.4741-5.3301-0.097015-18.86-1.2282-16.537-1.4741z"/>
  <path d="m208.4 190.33c2.4145-0.24727 27.926-0.24727 30.842 0 2.5967 0.14618-9.0657 1.3771-14.259 1.4263-5.2846-0.049164-18.951-1.2801-16.582-1.4263z"/>
  <path d="m350.17 128.36c7.041 0 12.756 6.1696 12.756 13.771s-5.7148 13.771-12.756 13.771c-7.041 0-12.756-6.1696-12.756-13.771s5.7148-13.771 12.756-13.771zm0.1367 1.9673c5.9616 0 10.798 5.2871 10.798 11.804 0 6.5167-4.8366 11.804-10.798 11.804-5.959 0-10.796-5.2871-10.796-11.804 0-6.5166 4.8366-11.804 10.796-11.804z"/>
 </g>
</svg>
