<?xml version="1.0" encoding="UTF-8"?>
<svg viewBox="0 0 538.31433 164.73102" xmlns="http://www.w3.org/2000/svg">
 <path d="m257.59 161.73c-0.5752-1.65-1.4196-3-1.8766-3-2.4312 0-3.9736-3.4565-3.9736-8.9048 0-6.2985-0.60888-7.6647-2.658-5.9641-0.83734 0.69493-1.342 3.2714-1.342 6.8514 0 5.1624-0.34417 6.1026-3.4328 9.3776-4.1766 4.4285-8.0296 4.9177-8.9778 1.1399-0.40257-1.6039-1.3307-2.5-2.5894-2.5-2.2018 0-2.84-1.8721-3.2387-9.5-0.19136-3.6616-0.66282-5-1.7613-5-1.1172 0-1.6276 1.5742-2 6.168-0.42382 5.2282-0.91899 6.4962-3.25 8.3226-1.5125 1.185-2.75 2.7969-2.75 3.582 0 2.37-6.7216 1.8798-7.4917-0.54632-0.34455-1.0856-1.8374-2.5523-3.3174-3.2594-2.63-1.2566-2.705-1.5458-3.3094-12.776-0.34014-6.3198-0.67764-12.064-0.75-12.764-0.1038-1.0051-7.0777-1.2582-33.051-1.1993l-32.92 0.07464-1.0281 2.9493c-0.56548 1.6221-1.4648 2.9493-1.9984 2.9493-2.4717 0-4.1338-1.4128-4.1338-3.5137 0-2.2026-0.41161-2.3242-9.75-2.8808-35.457-2.1134-40.371-3.3116-48.541-11.836-6.2697-6.5414-9.4741-13.064-10.714-21.809-1.6512-11.642 0.56069-21.541 6.6236-29.644 1.3101-1.7508 2.382-3.3329 2.382-3.5158s-5.6077-0.41591-12.462-0.51785-14.336-0.6901-16.627-1.307c-2.9655-0.79852-4.4746-0.8126-5.2384-0.04887-1.4088 1.4088-6.221 1.3719-8.5225-0.0654-1.4729-0.91983-2.6862-0.63206-6.3243 1.5-2.476 1.451-6.0372 2.6525-7.9139 2.67s-4.2856 0.69249-5.3533 1.5-3.1489 1.4682-4.625 1.4682c-2.9707 0-3.2378-0.68969-4.4597-11.513-0.40722-3.607-0.22234-7.7084 0.46205-10.25 0.955-3.5466 1.5477-4.237 3.6375-4.237 1.3732 0 3.4933 0.63993 4.7115 1.4221s4.3397 1.7313 6.9368 2.1093c2.9379 0.4276 5.7396 1.6304 7.4154 3.1834 2.5009 2.3178 2.9611 2.4078 6.4392 1.2599 2.0602-0.67992 4.8795-0.95165 6.2652-0.60386s3.7684 0.15754 5.2948-0.42279c1.8209-0.69229 24.284-1.1149 65.319-1.229 34.399-0.0956 70.532-0.31658 80.294-0.49108 16.84-0.301 17.75-0.41749 17.75-2.2727 0-1.4047 0.68516-1.9554 2.4326-1.9554 1.5544 0 2.6618-0.72207 3.0674-2 0.34913-1.1 1.0382-2 1.5312-2 1.2569 0 0.62838-7.9702-0.69478-8.8107-1.7764-1.1283-2.6655-7.088-1.3025-8.7303 1.6057-1.9348 10.305-1.9603 11.903-0.03484 1.5481 1.8654 0.33656 8.5758-1.5484 8.5758-0.97921 0-1.3887 1.327-1.3887 4.5 0 3.1647 0.41049 4.5 1.3834 4.5 0.76085 0 1.6187 0.9 1.9064 2 0.31947 1.2217 1.364 2 2.684 2 1.7059 0 2.0273 0.42117 1.5262 2-0.34913 1.1-0.20694 2 0.31598 2s1.1861-0.9 1.4738-2 1.3526-2.0035 2.3666-2.0078c4.0927-0.01732 5.7126-10.054 2.6569-16.461-1.6154-3.3876-1.6048-3.5991 0.25-5.0021 2.972-2.2481 10.674-1.9792 12.176 0.42505 0.7682 1.2301 0.85729 2.1778 0.24055 2.559-0.53874 0.33296-0.97952 1.4788-0.97952 2.5464s-0.675 1.941-1.5 1.941c-1.1357 0-1.5 1.2288-1.5 5.059 0 3.3307 0.36462 4.8337 1.0673 4.3994 0.5877-0.36322 1.3142 0.2843 1.6166 1.441 0.3128 1.1961 1.3603 2.1006 2.4327 2.1006 1.3423 0 1.8834 0.71827 1.8834 2.5 0 1.375 0.45 2.5 1 2.5s1-0.86968 1-1.9326c0-1.1326 0.93134-2.2188 2.25-2.6241 3.9072-1.2007 5.75-4.0193 5.75-8.7945 0-2.829-0.49526-4.6249-1.3677-4.9597-1.7305-0.66405-2.6007-4.9941-1.4257-7.0938 1.0143-1.8124 11.227-2.3216 12.283-0.61234 1.04 1.6828-0.61981 8.017-2.1008 8.017-0.99862 0-1.3887 1.3957-1.3887 4.9686 0 3.8642 0.31334 4.8484 1.4097 4.4277 0.84882-0.32572 1.6727 0.2879 2.0709 1.5424 1.3402 4.2227 5.2837 5.104 20.727 4.6322 38.992-1.191 107.36-4.8166 133.38-7.0734 9.2997-0.80644 20.058-1.7266 23.908-2.0448 23.055-1.9056 42.981-7.1364 57.421-15.073 10.601-5.8273 17.772-11.897 19.997-16.925 2.5436-5.7502 4.688-6.6145 7.7061-3.1057 4.3613 5.0703 6.1175 16.635 6.8317 44.986 0.68026 27.005-1.5772 47.625-5.9435 54.289-2.351 3.5882-4.3917 2.9025-6.6664-2.2398-2.6154-5.9125-6.881-9.7054-17.671-15.712-17.364-9.6672-33.074-13.213-63.512-14.334l-17.838-0.65719 0.70071 8.9572c0.62648 8.0084-0.06664 15.259-2.1617 22.614-0.91333 3.2062 2.0658 1.7823 5.2954-2.5309 2.8314-3.7814 4.519-6.9753 6.9847-13.219 0.61545-1.5585 0.86418-1.079 1.1267 2.172 0.24505 3.0347-0.76276 7.0901-3.6972 14.877-4.1216 10.937-7.2346 15.081-14.227 18.939-1.4594 0.80509-3.6622 3.0961-4.8952 5.091-2.4272 3.9273-7.2995 7.4115-10.373 7.4175-1.0567 0.00206-2.7034-0.70404-3.6592-1.5691-1.5606-1.4123-8.3317-1.4988-66.329-0.84712l-64.591 0.72573v12.953c0 12.542-0.07748 13.014-2.4409 14.873-1.3425 1.056-2.7228 2.8083-3.0674 3.8939-0.43938 1.3844-1.5179 1.9739-3.6111 1.9739-2.4172 0-3.1835-0.57036-4.0304-3zm5.9617-1.2615c0.24799-1.2877-0.33248-1.7385-2.2385-1.7385-2.8073 0-2.8658 0.07413-1.9475 2.4673 0.79667 2.0761 3.7447 1.5628 4.186-0.72878zm-45.45-0.23852c0.41585-1.0837-0.10953-1.5-1.893-1.5-1.5277 0-2.4686 0.57175-2.4686 1.5 0 0.825 0.85186 1.5 1.893 1.5s2.152-0.675 2.4686-1.5zm23 0c0.43113-1.1235-0.1616-1.5-2.3616-1.5s-2.7928 0.37648-2.3616 1.5c0.31659 0.825 1.3793 1.5 2.3616 1.5s2.045-0.675 2.3616-1.5zm-17.362-5.941c0-1.8462-1.6697-2.9025-2.4899-1.5753-0.88322 1.4291-4.2416 1.2673-4.8506-0.23369-0.38169-0.94068-0.76971-0.87881-1.568 0.25-0.71919 1.017-1.0658 1.0975-1.0761 0.25-0.0088-0.71882-1.2901-1.25-3.0153-1.25-2.3333 0-3 0.44444-3 2 0 1.8333 0.66667 2 8 2 6.2988 0 8-0.30642 8-1.441zm22-0.55902c0-1.1-0.45-2-1-2s-1 0.45-1 1c0 1.4467-3.7395 1.2313-4.3405-0.25-0.38169-0.94068-0.76971-0.87881-1.568 0.25-0.71919 1.017-1.0658 1.0975-1.0761 0.25-0.02104-1.7175-4.6728-1.5848-5.3394 0.15223-0.85398 2.2254 0.21964 2.5978 7.4908 2.5978 6.1667 0 6.8333-0.19512 6.8333-2zm23 0c0-1.1111-0.66667-2-1.5-2-0.825 0-1.5 0.45-1.5 1s-0.9 1-2 1-2-0.45-2-1-0.45-1-1-1-1 0.70714-1 1.5714c0 1.4286-0.14286 1.4286-1.5714 0-1.9197-1.9197-4.4286-2.0546-4.4286-0.2381 0 2.2955 1.1366 2.6667 8.1667 2.6667 6.1667 0 6.8333-0.19512 6.8333-2zm-45.24-10.75c-0.10102-4.2625 0.16706-8.7625 0.59572-10 0.49009-1.4148 0.38319-2.25-0.28799-2.25-0.58707 0-1.0674 0.87344-1.0674 1.941s-0.45 2.2191-1 2.559-1 3.5165-1 7.059c0 5.7743-0.20701 6.441-2 6.441-1.8261 0-2-0.66667-2-7.6667 0-4.2167-0.26934-7.3973-0.59853-7.0681-0.55289 0.5529-0.81345 2.968-1.2391 11.485-0.08933 1.7875-0.61241 3.25-1.1624 3.25-0.57286 0-1-3.0357-1-7.107 0-6.0698-0.23084-7.0184-1.5818-6.5-0.86998 0.33385-1.995 0.60699-2.5 0.60699s-0.91821 3.375-0.91821 7.5v7.5h15.943l-0.18366-7.75zm22.225 4c-0.00842-2.0625-0.45153-4.425-0.98469-5.25-0.70991-1.0985-0.97347-0.36246-0.98469 2.75-0.01289 3.5782-0.33144 4.25-2.0153 4.25-1.842 0-2-0.66667-2-8.441 0-11.859-1.9446-12.184-2.2056-0.36804l-0.20563 9.309-0.3333-8.75c-0.25177-6.6096-0.67068-8.75-1.7126-8.75-0.7586 0-2.0911-0.27314-2.9611-0.60699-1.9457-0.74663-2.1811 3.1976-0.42127 7.0599 0.83291 1.828 0.86227 3.2016 0.10402 4.8658-0.58107 1.2753-0.82584 3.5253-0.54394 5 0.49683 2.599 0.72368 2.6812 7.396 2.6812h6.8834l-0.01531-3.75zm23.04-8.25c0.56239-12.332 0.26951-16.3-1.1388-15.429-0.48711 0.30105-0.88565 5.9208-0.88565 12.488 0 6.5849-0.41186 11.941-0.91821 11.941s-1.6518 0.28148-2.5483 0.62552c-1.4723 0.56497-1.5635-0.48769-0.94241-10.877 0.6929-11.59 0.19692-16.749-1.6102-16.749-0.5951 0-0.98095 5.5723-0.98095 14.167 0 7.7917-0.25231 13.914-0.5607 13.606s-0.64588-15.346-0.75-33.417l-0.1893-32.856-2.8413-0.32523c-2.5182-0.28825-2.7626-0.07721-2.1489 1.8563 0.38081 1.1998 0.67195 16.778 0.64697 34.618l-0.0454 32.436 7.1943-0.29268 7.1943-0.29269 0.52447-11.5zm-38.79 2.5c1.2221-1.6634 0.89048-1.991-2.2367-2.2097-2.2917-0.16033-2.998 0.21175-2.998 1.5794 0 1.9534 3.9162 2.425 5.2347 0.63034zm22.522-1.25c0.61308-1.8671-4.4241-1.5577-5.1431 0.31583-0.46791 1.2194-0.0108 1.496 2.0659 1.25 1.4667-0.17371 2.8515-0.87833 3.0772-1.5658zm-6.6365-8.4146c-0.44881-6.2967-1.9348-4.0946-2.0494 3.037-0.05449 3.3893 0.21077 4.1393 1.1797 3.3354 0.81228-0.67387 1.1168-2.9054 0.8697-6.3724zm-16.312 2.4161c0.26764-2.6933 0.0408-3.0247-1.75-2.5564-1.2961 0.33892-2.0575 1.3584-2.0575 2.7547 0 4.7236 3.3357 4.5498 3.8075-0.19839zm22.423-0.13283c-0.33073-2.2534-0.8378-2.7728-2.3268-2.3834-1.2001 0.31383-1.9039 1.379-1.9039 2.8813 0 1.8283 0.54191 2.3834 2.3268 2.3834 1.9952 0 2.2665-0.41061 1.9039-2.8813zm-116.23 0.94028c0-1.3573-1.7645-2.249-2.4037-1.2148-0.59765 0.96702 0.26831 2.1558 1.5704 2.1558 0.45833 0 0.83333-0.42344 0.83333-0.94098zm85-2.166c0-0.49115-0.675-0.89301-1.5-0.89301s-1.5 0.66088-1.5 1.4686c0 0.89459 0.58629 1.2436 1.5 0.89301 0.825-0.31659 1.5-0.97746 1.5-1.4686zm185.58-7.11c2.1525-0.98075 3.3553-2.783 1.8573-2.783-3.0152 0-6.9538 5.3052-5.5681 7.5 0.34724 0.55 0.77904-0.03793 0.95954-1.3065s1.4186-2.8033 2.7512-3.4105zm3.0518 2.5125c-0.82426-0.82426-3.6288 0.49605-3.6288 1.7084 0 0.73956 0.63946 0.72434 2.0856-0.04964 1.1471-0.61391 1.8415-1.3603 1.5431-1.6587zm-264.63 0.82119c0-0.48585-0.9-1.1187-2-1.4064-1.9657-0.51404-2.6443 0.31208-1.3333 1.6231 0.97013 0.97014 3.3333 0.8165 3.3333-0.2167zm5-4.1166c0-4.3333-0.26667-5-2-5s-2 0.66667-2 5 0.26667 5 2 5 2-0.66667 2-5zm49 4.0965c0-1.3121-7.2863-1.6366-28.876-1.2859-11.04 0.17931-19.124 0.70772-19.124 1.25 0 0.55976 9.699 0.93939 24 0.93939 13.624 0 24-0.3906 24-0.90349zm12.066-0.13169c2.1922-1.1732 2.6357-5.8634 0.73426-7.7648-0.66-0.66-3.36-1.2-6-1.2-4.1333 0-4.8 0.27778-4.8 2 0 1.7333 0.66667 2 5 2 4.8562 0 6.3033 1.0384 3.75 2.691-0.6875 0.44496-1.925 0.85489-2.75 0.91096l-3.75 0.25c-1.2375 0.08143-2.25 0.59806-2.25 1.1481 0 1.316 7.5905 1.2895 10.066-0.03518zm7.216-0.25671c0.27266-0.71054-0.07397-2.071-0.77029-3.0233-1.1693-1.5991-1.3126-1.5577-1.8751 0.54189-0.33499 1.2503-0.61522 2.6108-0.62273 3.0233-0.02332 1.2812 2.7446 0.82224 3.2681-0.54189zm3.7182 0.23287c0-0.58246-0.45-0.7809-1-0.44098s-1 0.81648-1 1.059 0.45 0.44098 1 0.44098 1-0.47656 1-1.059zm7-0.04538c0-0.37333-1.0125-0.95614-2.25-1.2951-4.1835-1.146-6.6642-4.1543-7.2041-8.7364-0.33818-2.8702-0.24837-3.5121 0.26238-1.8753 0.71296 2.2849 6.3347 7.0112 8.3396 7.0112 1.3917 0 0.9695-3.0255-0.64788-4.6429-0.825-0.825-1.5-2.1107-1.5-2.8571s0.675-2.0321 1.5-2.8571c1.7753-1.7753 2.1153-11.643 0.40113-11.643-0.60438 0-2.5946 0.70977-4.4227 1.5773-4.7218 2.2407-6.8791 7.2515-6.1525 14.291 0.50304 4.8741 1.0332 5.9349 4.3733 8.7504 3.4014 2.8672 7.3008 4.0833 7.3008 2.2768zm13.685-1.8956c0.10665-1.4439-0.02993-1.7608-0.32332-0.75-0.38507 1.3266-1.5789 1.75-4.9346 1.75-2.4347 0-4.4267 0.38849-4.4267 0.86332s2.1375 0.81232 4.75 0.75c4.317-0.10299 4.7668-0.34122 4.9346-2.6133zm-117.03-0.4922c-1.1045-2.3813-1.5564-2.4939-10.156-2.5309-11.225-0.04824-21.387-1.3695-28.385-3.6907-4.397-1.4584-6.1775-2.7956-9.7013-7.2862-9.57-12.196-9.7248-28.52-0.38899-41.033 2.1801-2.922 3.7875-5.489 3.572-5.7046s-1.9728-0.09528-3.905 0.26722c-3.1669 0.59412-3.8915 1.4045-7.3519 8.222-3.2792 6.4605-3.8902 8.6962-4.1918 15.338-0.36229 7.9779 1.3313 15.481 4.7199 20.91 8.9334 14.313 17.205 17.471 46.789 17.865l10.156 0.13515-1.1559-2.4922zm9.5186-0.63895c-5.0752-1.8774-6.1373-10.131-1.9195-14.916 1.2348-1.401 1.9725-2.076 1.6395-1.5-1.3407 2.3184-1.7137 5.8925-0.85159 8.1599 1.0754 2.8285 7.0277 5.958 9.5161 5.0031 1.6003-0.61408 1.5673-0.85257-0.4091-2.9563-2.661-2.8326-2.7146-4.2868-0.20748-5.6286 1.629-0.87183 1.8815-1.8856 1.5652-6.2852-0.31822-4.4266-0.66052-5.191-2.1923-4.8957-0.99837 0.19247-2.0965 0.80313-2.4404 1.357s-1.4688 0.75219-2.5 0.44069c-3.7572-1.135-9.3748 5.8167-9.3748 11.601 0 6.6855 5.8557 14.748 8.2092 11.303 0.39007-0.57095-0.07556-1.3284-1.0347-1.6832zm96.826-0.80983c0-2.1675-0.45-4.2191-1-4.559-0.61081-0.3775-1 1.1563-1 3.941 0 2.5075 0.45 4.559 1 4.559s1-1.7734 1-3.941zm20-0.55902c0-3.8333-0.2963-4.5-2-4.5s-2 0.66667-2 4.5 0.2963 4.5 2 4.5 2-0.66667 2-4.5zm25.823 2.8219c-0.31992-1.6604-5.1731-3.6388-6.2601-2.5518-0.30979 0.30979-0.56326 1.3883-0.56326 2.3966 0 1.4357 0.77495 1.8333 3.5733 1.8333 2.8066 0 3.504-0.36006 3.25-1.6781zm8.4664-0.32192c-0.39301-1.5029-1.364-2-3.9064-2-2.1528 0-3.3834 0.48495-3.3834 1.3333 0 2.0548 1.0493 2.6667 4.573 2.6667 2.7474 0 3.1602-0.30393 2.7167-2zm31.71 0c-2.2012-1.7218-4.1436-1.9582-16.25-1.9778-13.091-0.02117-13.75 0.07365-13.75 1.9778 0 1.9189 0.65925 1.9991 16.25 1.9778l16.25-0.02223-2.5-1.9555zm65.208-0.37887c0.3896-0.60742 0.32467-1.4881-0.14428-1.957s-11.374-0.69771-24.234-0.50836c-22.748 0.33496-23.462 0.40769-26.356 2.6855l-2.9743 2.3412 26.5-0.72847c17.488-0.48074 26.741-1.104 27.208-1.8329zm14.792 0.39433c0-1.139-2.1915-2.6511-4.75-3.2774-1.8486-0.45254-2.25-0.1339-2.25 1.786 0 1.6488 0.66244 2.444 2.25 2.7009 2.629 0.42544 4.75-0.11467 4.75-1.2096zm-70.25-0.95902c1.2375-1.0324 2.25-2.1424 2.25-2.4667 0-1.1079-2.1406-0.59199-3.6004 0.8678-1.4687 1.4687-4.3996 1.0926-4.3996-0.5645 0-0.49115-1.0125-0.87879-2.25-0.86141-2.1877 0.03073-2.1723 0.09999 0.55576 2.5 3.3348 2.9338 4.4614 3.0132 7.4442 0.52484zm61.25 0.11023c0-2.3592-0.84053-3.1651-2.5978-2.4908-2.2121 0.84887-1.7317 4.3241 0.59777 4.3241 1.2727 0 2-0.66667 2-1.8333zm-213.5-2.5846c0.55-0.14281-0.44015-1.0072-2.2003-1.9208-2.3289-1.2089-5.8006-1.6612-12.75-1.6612-9.3777 0-9.5497 0.04264-9.5497 2.368v2.368l11.75-0.44716c6.4625-0.24593 12.2-0.564 12.75-0.70681zm24.5-1.582c0-1.831-0.66667-2-7.8892-2-6.3778 0-8.3415 0.37678-10.25 1.9667l-2.3608 1.9667 10.25 0.03327c9.5944 0.03114 10.25-0.09465 10.25-1.9667zm42.814 0.25c-0.2504-1.3186-1.501-1.8251-5.0733-2.0548-4.2154-0.271-4.741-0.07698-4.741 1.75 0 1.803 0.62157 2.0548 5.0733 2.0548 4.2917 0 5.0221-0.26963 4.741-1.75zm-27.491-5.4082-0.57709-5.5914-2.623 1.3686c-1.4427 0.75276-3.1457 1.3714-3.7845 1.3748-2.089 0.01108-0.71453 3.4977 1.5084 3.8266 1.1912 0.17622 2.9505 1.3696 3.9095 2.6521s1.8336 2.2482 1.9437 2.1462-0.05959-2.7016-0.37698-5.7769zm29.589-21.262c-0.86048-0.80949-1.0269 0.73603-0.66394 6.1668 0.26638 3.9859 0.17693 8.9359-0.19878 11s-0.20303 5.328 0.38373 7.253c0.89862 2.9481 1.111 1.384 1.347-9.9198 0.19089-9.1424-0.08579-13.764-0.86806-14.5zm168.67 24.581c-2.1353-0.41672-3.0035 0.34001-2.0886 1.8204 0.49468 0.8004 1.1313 0.74862 2.2559-0.18347 1.4115-1.1699 1.395-1.3321-0.16729-1.637zm-235.08 0.8384c0.35191-0.5694-0.50929-1-2-1s-2.3519 0.4306-2 1c0.33992 0.55 1.2399 1 2 1s1.6601-0.45 2-1zm-55.5-0.89993c-0.825-0.46152-7.575-1.1287-15-1.4827s-14.85-0.92421-16.5-1.2672-2.6545-0.25407-2.2322 0.19756 3.3473 1.3754 6.5 2.0529c6.4713 1.3906 29.583 1.8144 27.232 0.49944zm153-0.04272c0-0.58154-1.5078-1.0574-3.3508-1.0574-3.3526 0-9.4583-1.6584-10.932-2.9693-0.43053-0.38297-0.50875-1.4104-0.17383-2.2832 0.51512-1.3424 1.0496-1.4016 3.4683-0.38464 1.5726 0.66125 4.6884 1.0278 6.9238 0.81466 3.5133-0.33505 4.0645-0.71236 4.0645-2.7826 0-2.5365-0.07331-2.5669-6.8525-2.8438-7.1926-0.29373-11.554 5.0318-7.8975 9.6426 1.5727 1.983 2.5179 2.2502 9.2707 2.6204 3.3738 0.18499 5.4793-0.10587 5.4793-0.75692zm9-0.05735c0-0.55-1.8-1-4-1s-4 0.45-4 1 1.8 1 4 1 4-0.45 4-1zm65-0.5c-0.30931-0.61863-7.9368-0.97646-20-0.93827-34.637 0.10965-43 0.39211-43 1.4523 0 0.66965 10.783 0.92437 31.75 0.75 20.747-0.17254 31.577-0.6106 31.25-1.264zm55.912-1.7311c1.1251-1.8016 1.0758-1.9783-0.395-1.4139-0.92444 0.35475-3.219 0.64499-5.099 0.64499-2.2824 0-3.4182 0.47074-3.4182 1.4167 0 3.0454 6.9199 2.5425 8.9122-0.64774zm-19.912 1.2311c0-0.62366-5.8333-1-15.5-1s-15.5 0.37634-15.5 1 5.8333 1 15.5 1 15.5-0.37634 15.5-1zm9 0c0-0.55-1.575-1-3.5-1s-3.5 0.45-3.5 1 1.575 1 3.5 1 3.5-0.45 3.5-1zm14 0c0-0.55-0.675-1-1.5-1s-1.5 0.45-1.5 1 0.675 1 1.5 1 1.5-0.45 1.5-1zm-246.5-0.875c8.41-0.10012 10.5-0.41138 10.5-1.5637 0-1.8206-5.4824-2.4965-17.5-2.1576-11.473 0.32359-11.5 0.3284-11.5 2.013 0 1.7108 1.052 2.1228 5 1.9583 1.65-0.06875 7.725-0.18125 13.5-0.25zm261.5-2.2826c0-0.70529-0.53545-0.64287-1.5242 0.17769-2.3991 1.9911-2.71 0.5473-0.48983-2.2751 2.2797-2.8982 2.6446-5.7449 0.73624-5.7449-1.4484 0-4.7222 3.496-4.7222 5.0428 0 0.56097-0.64659 1.2681-1.4369 1.5713-2.1731 0.83389-0.6849 3.5593 1.5553 2.8483 1.0655-0.33817 1.8816-0.11898 1.8816 0.50539 0 0.79269 0.5621 0.80174 2 0.0322 1.1-0.5887 2-1.5596 2-2.1576zm-298.73-1.0924c0.82649-1.7875 1.8082-4.2628 2.1815-5.5007s2.2114-3.4196 4.0844-4.8482c2.9539-2.253 3.2158-2.7873 1.9749-4.0283-0.78689-0.78688-1.1767-2.0927-0.8662-2.9018 0.61037-1.5906 5.3505-2.0712 5.3505-0.54249 0 0.51072 0.71363 1.6422 1.5858 2.5144 1.3728 1.3728 4.2948 1.5284 21.75 1.1583 11.09-0.23516 25.492-0.46665 32.003-0.51442l11.839-0.08685-0.20601-11.75c-0.11331-6.4625-0.44224-14.846-0.73096-18.631l-0.52496-6.8808-51.108 0.69394c-58.164 0.78974-58.324 0.81003-66.796 8.4264-5.6924 5.1179-7.502 8.2326-8.8195 15.18-0.96311 5.0784-0.09041 12.28 2.2129 18.261 1.2215 3.172 7.5013 7.8271 12.956 9.6042 2.0138 0.6561 9.6638 1.5552 17 1.9979s13.625 0.87098 13.975 0.95164 1.3123-1.3158 2.1388-3.1033zm52.725 2.25c0-0.55-0.675-1-1.5-1s-1.5 0.45-1.5 1 0.675 1 1.5 1 1.5-0.45 1.5-1zm28-1c0-1.8566-0.663-1.9992-9.25-1.989-11.55 0.01374-16.75 0.82708-16.75 2.6198 0 1.0887 2.6633 1.3692 13 1.3692 12.333 0 13-0.10256 13-2zm46-8.5733c0-9.5308-0.17255-10.54-1.75-10.238-1.5079 0.28871-1.7894 1.7512-2.035 10.573-0.27066 9.7236-0.1827 10.238 1.75 10.238 1.9183 0 2.035-0.60608 2.035-10.573zm161.5 9.5733c-0.33992-0.55-1.0415-1-1.559-1s-0.94098 0.45-0.94098 1 0.70156 1 1.559 1 1.2809-0.45 0.94098-1zm-62.685-5.8414 0.31512-3.2057-31.978 0.0745c-26.954 0.0628-32.065 0.30216-32.534 1.5235-0.77942 2.0312 0.24772 4.2519 2.2163 4.7918 0.91567 0.25114 15.165 0.35873 31.665 0.2391l30-0.21751 0.31511-3.2057zm19.61 1.7588c-2.4718-2.7313-7.8277-4.9174-12.047-4.9174-3.0424 0-3.3779 0.28142-3.3779 2.8333 0 1.5583 0.3 3.1333 0.66667 3.5s4.2614 0.66667 8.655 0.66667h7.9883l-1.8847-2.0826zm15.176 0.81474c0.12996-0.12996 0.54665-1.4729 0.92598-2.9842 0.66444-2.6473 0.54613-2.748-3.2316-2.748-2.991 0-4.5588 0.66543-6.6084 2.8047-1.4779 1.5426-2.6871 3.1364-2.6871 3.5417 0 0.63011 10.936 0.05111 11.601-0.61423zm-206.15-1.1412c-1.3291-0.97187-2.4742-1.1161-3.6911-0.46481-2.6381 1.4119-2.1631 1.8738 1.9269 1.8738 3.4201 0 3.5496-0.10346 1.7642-1.409zm105.54-1.091c0-2.25-0.4-2.5-4-2.5-2.2 0-4 0.4132-4 0.91821 0 2.7985 1.4484 4.0818 4.607 4.0818 2.9525 0 3.393-0.32454 3.393-2.5zm110.23 0.07654c0.35061-1.8341-0.04664-2.5604-1.6334-2.9863-4.4745-1.2012-5.5967-0.71808-5.5967 2.4098 0 2.7422 0.29073 3 3.3834 3 2.7864 0 3.4652-0.42765 3.8467-2.4235zm10-0.69273c11.334-5.7211 15.522-12.932 16.493-28.396 0.37919-6.0394 0.10271-8.97-1.123-11.904-0.89432-2.1404-1.4655-4.0521-1.2694-4.2483 0.82482-0.82482 3.7119 7.6406 4.6198 13.546 1.3476 8.7649 2.4557 9.1585 1.7389 0.61757-1.5947-19.003-9.5744-29.859-23.596-32.101-4.2269-0.67591-4.2513-0.66225-3.9233 2.1986 0.27995 2.4422 0.87403 2.9664 3.9174 3.4568 5.3813 0.86702 11.719 5.8474 13.293 10.446 0.5321 1.5546 0.17622 1.4032-1.598-0.67961-1.2554-1.4738-3.8575-3.6096-5.7825-4.7463-3.6273-2.1418-10-2.8263-10-1.0741 0 0.55 1.1038 1 2.453 1 6.3077 0 9.6555 3.864 12.937 14.932 4.5452 15.331-2.2831 32.674-13.784 35.011-2.1946 0.44605-3.1989 1.28-3.4247 2.8441-0.44151 3.0576 1.6088 2.853 9.0497-0.90322zm8.7698 2.1476c0-0.53273-0.675-0.70959-1.5-0.39301s-1.5 0.75246-1.5 0.96862 0.675 0.39301 1.5 0.39301 1.5-0.43588 1.5-0.96862zm-264.45-5.2814c0.19726-3.3867-0.09875-4.75-1.0313-4.75-1.672 0-2.522 2.2431-2.522 6.6551 0 2.6995 0.37164 3.4182 1.6383 3.1682 1.1922-0.23528 1.7137-1.6167 1.915-5.0733zm20.549 4.7174c3.7763-1.1985 1.0117-1.7553-7.678-1.5463-6.3955 0.15381-8.4345-0.09634-7.8954-0.96865 0.39974-0.6468 0.10666-1.5688-0.6513-2.0489-0.80777-0.51163 8.4253-0.87922 22.31-0.8882 23.067-0.01491 23.684-0.06775 23.537-2.0153-0.14621-1.941-0.86754-2-24.438-2h-24.287v4.3333c0 2.3833 0.18985 4.5208 0.42189 4.75 0.7427 0.7335 16.556 1.0586 18.681 0.38404zm24.022-0.46737c3.25 0 5.875-0.44681 5.875-1 0-0.60081-4.0408-1-10.122-1-9.1288 0-9.9932 0.1557-8.806 1.5862 0.9057 1.0913 2.2309 1.4033 4.2474 1 1.612-0.32241 5.5748-0.5862 8.806-0.5862zm36.805-9.3895c-0.91346-0.85191-1.0465-0.17909-0.57149 2.8895 0.34057 2.2 0.70529 4.9 0.81048 6s0.36236-0.20028 0.5715-2.8895c0.23051-2.9641-0.08865-5.3268-0.81049-6zm-19.865 8.3543c2.3404-1.2526 2.5352-5.2211 0.36283-7.3934-1.7764-1.7764-1.9918-1.8088-6.3036-0.94643-2.1667 0.43333-3.125 1.2-3.125 2.5 0 1.4546 0.74 1.875 3.3 1.875 1.815 0 3.84-0.54 4.5-1.2 0.93333-0.93333 1.2-0.83004 1.2 0.46482 0 2.0208-2.9531 3.7352-6.4343 3.7352-1.4112 0-2.5657 0.45-2.5657 1 0 1.3142 6.5921 1.2887 9.0657-0.03518zm30.475-0.03135c0.36253-0.58659 0.43507-1.2906 0.1612-1.5645-0.79792-0.79792-7.7023 0.76389-7.7023 1.7423 0 1.2647 6.7479 1.1056 7.5411-0.17782zm133.31-1.4508c2.4627-2.5964 1.4727-3.2636-2.0472-1.3798-1.5128 0.80962-2.7584 0.79695-4.6843-0.04764-2.5295-1.1093-2.516-1.0605 0.37649 1.3612 1.65 1.3814 3.225 2.5201 3.5 2.5304s1.5597-1.0985 2.855-2.464zm55.933-1.6184c0.36559-1.8983-1.9075-3.0263-3.774-1.8727-1.815 1.1218-0.41337 4.232 1.7219 3.8208 0.95785-0.18446 1.8813-1.0611 2.0521-1.9481zm-214.48-12.659c-0.44478-8.8463-0.96158-12.206-1.8777-12.206-0.6952 0-1.491 0.5625-1.7684 1.25-0.40351 1-0.52017 1-0.58333 0-0.04342-0.6875-1.2651-1.25-2.7149-1.25-2.5605 0-2.6177 0.13273-2 4.6396 0.34975 2.5518 0.63592 6.3243 0.63592 8.3834 0 3.0235 0.42599 3.8552 2.2142 4.3228 1.2178 0.31847 2.4736 0.15942 2.7905-0.35344s1.176 1.0986 1.909 3.5811 1.4847 4.3615 1.6705 4.1757 0.06165-5.8304-0.27588-12.543zm-3.0562-0.70564c-0.0111-2.2 0.18461-3.2178 0.4349-2.2617s0.25937 2.7561 0.02018 4-0.44398 0.46166-0.45508-1.7383zm48.748-0.05902c0-7.6273-0.38692-12.441-1-12.441-0.61562 0-1 5.0197-1 13.059 0 8.4514 0.35283 12.841 1 12.441 0.57996-0.35844 1-5.8437 1-13.059zm137 12.667c0-0.49038-1.0935-1.166-2.4301-1.5015-5.2591-1.32-5.5699-2.4496-5.5699-20.244 0-9.9048 0.43173-17.301 1.0807-18.514 0.59438-1.1106 2.8721-2.8213 5.0615-3.8015 3.0718-1.3753 3.5586-1.8927 2.132-2.2657-2.886-0.75469-5.8167 0.76679-8.3617 4.3409-2.1098 2.9629-2.3258 4.2952-2.242 13.828 0.20577 23.407 0.06756 22.317 3.2731 25.826 2.7183 2.9761 7.0564 4.4093 7.0564 2.3313zm-157-1.3623c0-2.2735-2.2407-3.7461-5.7-3.7461-2.7822 0-3.3 0.36292-3.3 2.3131 0 2.0403 0.53074 2.3406 4.5 2.5461 3.22 0.16668 4.5-0.14995 4.5-1.1131zm35-1.2461c0-2-0.5-2.5-2.5-2.5s-2.5 0.5-2.5 2.5 0.5 2.5 2.5 2.5 2.5-0.5 2.5-2.5zm9 0c0-2.25-0.4-2.5-4-2.5-3.2121 0-4 0.36111-4 1.8333 0 2.5834 0.85961 3.1667 4.6667 3.1667 2.8889 0 3.3333-0.33333 3.3333-2.5zm63.25 1.5126c15.106-0.01072 17.75-0.23608 17.75-1.5126 0-0.825-0.87344-1.5-1.941-1.5s-2.2295-0.46681-2.5821-1.0374c-0.68048-1.101-55.107-1.2912-67.727-0.23665-6.3844 0.53353-6.75 0.69959-6.75 3.066v2.5019l21.75-0.63437c11.962-0.3489 29.738-0.64004 39.5-0.64698zm-80.236-9.7626c0.00751-5.3625 0.285-10.762 0.61664-12 0.43642-1.6285 0.17266-2.25-0.95486-2.25-1.3068 0-1.6076 1.9343-1.8666 12.002-0.23414 9.1003-0.0066 12.001 0.9412 12 0.91347-0.00138 1.2537-2.6269 1.2636-9.7519zm103.99 8.25c0-0.83333-0.88889-1.5-2-1.5s-2 0.66667-2 1.5 0.88889 1.5 2 1.5 2-0.66667 2-1.5zm11-1c0-1.9839-0.50393-2.5-2.441-2.5-1.3425 0-2.7191 0.45-3.059 1s-1.4915 1-2.559 1c-1.9411 0-2.5298 1.0779-1.2743 2.3333 0.36666 0.36667 2.6167 0.66667 5 0.66667 3.9556 0 4.3333-0.21795 4.3333-2.5zm5 1.6911c0-0.44488-0.66069-1.6824-1.4682-2.75-1.4063-1.8593-1.4695-1.8252-1.5 0.80887-0.02072 1.7919 0.49079 2.75 1.4682 2.75 0.825 0 1.5-0.36399 1.5-0.80887zm34-3.3823c0-1.0472-1.1409-1.0056-2.8957 0.10552-0.87375 0.55326-1.1275 1.576-0.67858 2.7347 0.69134 1.7843 0.76853 1.7811 2.1457-0.09021 0.78572-1.0676 1.4286-2.3051 1.4286-2.75zm2.8617 2.8578c0.83508-1.0062 0.753-1.3333-0.33452-1.3333-0.7926 0-1.6713 0.6-1.9527 1.3333s-0.13087 1.3333 0.33452 1.3333 1.3441-0.6 1.9527-1.3333zm-27.862-1.698c0-1.1972-2.8206-2.4813-3.6433-1.6587-0.87571 0.87571 0.60965 2.6901 2.2023 2.6901 0.79254 0 1.441-0.46412 1.441-1.0314zm6.8104-0.37058c3.2136-1.6618 6.4754-7.259 8.0687-13.846 0.9193-3.8003 0.84945-6.1819-0.35005-11.935-0.82419-3.9529-1.8429-7.5012-2.2638-7.8852s-4.4778-1.0068-9.0153-1.384l-8.25-0.68584-0.11843 2.8187c-0.48612 11.569-0.59085 24.252-0.21847 26.455 0.32989 1.9511 1.1968 2.7861 3.3369 3.2141 1.5902 0.31804 3.3815 1.4944 3.9808 2.6141 1.295 2.4197 1.3598 2.4282 4.8296 0.63392zm29.623-2.7229c0.90773-2.2686 1.4466-4.3286 1.1975-4.5778-0.71346-0.71347-5.6024 6.9394-5.0275 7.8696 1.0602 1.7154 2.2282 0.71143 3.83-3.2919zm-295.93 2.1248c-0.33992-0.55-0.81648-1-1.059-1s-0.44098 0.45-0.44098 1 0.47656 1 1.059 1 0.7809-0.45 0.44098-1zm83.5 0c0-0.55-0.45-1-1-1s-1 0.45-1 1 0.45 1 1 1 1-0.45 1-1zm311.92-8.4017c3.4462-13.045 4.2763-32.772 2.4612-58.487-1.5888-22.509-3.7036-32.111-7.072-32.111-1.1725 0-1.283 0.3225-0.4529 1.3226 4.8093 5.7948 7.8149 50.239 5.1035 75.467-1.156 10.756-3.4877 20.211-4.9843 20.211-0.53464 0-0.97207 0.45-0.97207 1s0.83184 1 1.8485 1c1.4752 0 2.2967-1.6966 4.068-8.4017zm-310.96 2.2952c-0.93444-2.2559-0.95943-3.29-0.10028-4.1492 1.7006-1.7006 1.4812-8.7444-0.2723-8.7444-1.0153 0-1.4329 1.3457-1.4741 4.75-0.05813 4.8074 2.0481 14.278 2.7242 12.25 0.20189-0.60567-0.19301-2.4534-0.87756-4.106zm12.843-3.891c-0.28513-8.5831-0.40284-8.9976-2.5559-9-2.2027-0.00247-2.2469 0.20775-1.8381 8.7475 0.23038 4.8125 0.45852 8.8625 0.50697 9s1.0101 0.25 2.137 0.25c1.9355 0 2.0324-0.49783 1.75-8.9975zm131.45 6.4975c-0.50022-2.6168-1.6746-3.2315-2.7744-1.4521-0.92943 1.5038 0.22252 3.9521 1.8595 3.9521 0.94634 0 1.2395-0.80127 0.91481-2.5zm3.7552-2.5c0-2.75-0.45-5-1-5s-1 2.25-1 5 0.45 5 1 5 1-2.25 1-5zm5.9894 3.5127c1.7477-2.1059 0.61703-4.2232-2.1465-4.0196-1.2886 0.09493-2.3123 0.36031-2.2749 0.58972 0.80041 4.9104 2.2558 6.0393 4.4214 3.4298zm-239.99-1.0127c0-0.825-0.42344-1.5-0.94098-1.5-1.261 0-2.1641 1.5616-1.3652 2.3605 1.1262 1.1262 2.3062 0.68589 2.3062-0.86052zm83-0.55902c0-0.51754-0.45-0.94098-1-0.94098s-1 0.70156-1 1.559 0.45 1.2809 1 0.94098 1-1.0415 1-1.559zm9.7101 0.44371c0.20191-0.614-0.62462-1.0635-1.8388-1s-2.4055 0.71568-2.6498 1.4495c-0.30214 0.90743 0.28599 1.2273 1.8388 1 1.2557-0.18378 2.4481-0.83604 2.6498-1.4495zm10.29-6.8847c0-6.8889-0.28431-8.5-1.5-8.5s-1.5 1.6111-1.5 8.5 0.28431 8.5 1.5 8.5 1.5-1.6111 1.5-8.5zm113.14 7.503c8.3826-0.00291 8.6604-0.07792 9.269-2.503 0.4676-1.863 1.2885-2.5 3.2219-2.5 2.4012 0 2.5433-0.24209 1.9081-3.25-0.83679-3.9624-0.88475-6.3195-0.30408-14.944 0.24788-3.6817 0.18356-7.1158-0.14294-7.6313-0.34919-0.55138-19.815-1.1086-47.274-1.3533l-46.68-0.416-0.53044 7.5473c-0.29174 4.151-0.82066 11.783-1.1754 16.96l-0.64492 9.4129 36.856-0.65991c20.271-0.36295 40.744-0.66126 45.497-0.66291zm34.061-16.043 0.29775-16.04-6.9988 0.29015-6.9988 0.29015-0.73595 5.9159c-0.47999 3.8584-0.3563 6.3734 0.35564 7.2312 0.98531 1.1872 0.88074 6.5147-0.20275 10.329-0.27367 0.96347 0.44907 1.6046 2.0807 1.8458 3.001 0.44361 5.1864 2.0673 4.43 3.2912-1.032 1.6699 0.68837 2.8867 4.0813 2.8867h3.3932l0.29774-16.04zm-135.62 12.04c0.78001 0 1.4182-0.675 1.4182-1.5 0-1.7181-5.4863-2.1402-6.5-0.5-0.93619 1.5148 0.50611 3.2116 2.1829 2.5682 0.81435-0.31249 2.1188-0.56817 2.8988-0.56817zm-21.844-1.6951c0.24986-0.76144-0.6009-1.1188-2.3446-0.98472-1.5052 0.11569-2.9335 0.8006-3.174 1.522-0.30616 0.91848 0.39667 1.2137 2.3446 0.98473 1.53-0.17982 2.9583-0.86473 3.174-1.522zm298.26-3.7667c0-2.9451-0.65775-3.7803-5.5165-7.0054-14.783-9.8124-34.376-15.624-60.56-17.963-9.6673-0.8635-22.45-1.57-28.405-1.57-10.765 0-10.818 0.0117-9.0182 2 1.6018 1.7699 3.0863 2.001 12.905 2.0086 19.17 0.01478 41.818 2.6226 53.595 6.1714 8.3307 2.5102 19.761 8.2807 26.603 13.43 4.0594 3.0552 7.6405 5.9751 7.9579 6.4887 1.0868 1.7585 2.4389-0.21553 2.4389-3.5606zm-281.7-3.8542c0.4268-2.7277 0.25548-3.7034-0.60075-3.4214-0.69571 0.22916-1.2896 2.6672-1.4168 5.8159-0.23658 5.8574 0.94598 4.4538 2.0176-2.3946zm-16.459 2.3384c0.18651-1.2765-0.14758-3.2663-0.74242-4.4217s-1.2165-6.3758-1.3816-11.601l-0.30005-9.5-0.20754 10.191c-0.11415 5.605-0.65754 10.469-1.2075 10.809-1.4326 0.88539-1.2367 6.2386 0.25 6.8333 2.1067 0.84269 3.2344 0.1166 3.5891-2.3109zm21.619-1.9134c-0.40033-1.985-0.77966-8.2219-0.84295-13.86s-0.47761-10.25-0.9207-10.25-0.72419 4.7444-0.62464 10.542-0.10043 10.823-0.44438 11.167-0.62536 2.0832-0.62536 3.8651c0 2.7953 0.28708 3.1646 2.093 2.6924 1.8218-0.4764 1.9986-1.0149 1.3651-4.1564zm120.54-0.10906c0-2.3013-0.45135-3-1.9378-3-3.1508 0-1.9758 5.9201 1.1878 5.9847 0.4125 0.00842 0.75-1.3347 0.75-2.9847zm-147-13c0-6.4444-0.29167-8-1.5-8-1.1905 0-1.5 1.4444-1.5 7v7h-2.8834c-3.3666 0-4.082-1.7002-4.103-9.75-0.02174-8.3597-1.9914-6.1311-2.2095 2.5l-0.19586 7.75-0.35507-7c-0.39951-7.8764-1.1145-9.1798-4.1458-7.5575-1.8542 0.99235-2.1074 2.0245-2.1074 8.5926v7.4648h19v-8zm22.333-0.01263c-0.00753-5.6436-0.3576-7.5556-1.4216-7.7647-1.1263-0.22125-1.3438 1.0422-1.0763 6.25l0.33532 6.5273h-6.1706v-7c0-4.9905-0.36442-7-1.2694-7-0.93251 0-1.2207 2.057-1.0858 7.75l0.18364 7.75-0.72682-7.2293c-0.39975-3.9761-1.0152-7.5176-1.3676-7.8701s-1.8339-0.34137-3.2922 0.02463c-2.1382 0.53666-2.537 1.0921-2.0602 2.8701 0.32512 1.2126 0.59727 4.813 0.60478 8.0011l0.01365 5.7964 8.6716-0.30905 8.6716-0.30905-0.00999-7.4874zm19.917 7.3708 3.75-0.61984v-7.8692c0-6.3281-0.29375-7.8692-1.5-7.8692-1.1905 0-1.5 1.4444-1.5 7 0 6.8-0.07143 7-2.5 7s-2.5-0.2-2.5-7c0-4.9332-0.36907-7.0001-1.25-7.0002-0.7235-1.3e-4 -1.2914 1.3688-1.3483 3.25-0.27548 9.11-0.47343 10.75-1.2974 10.75-0.49261 0-0.72084-3.15-0.50718-7 0.35297-6.3602 0.21381-7-1.5226-7-4.5535 0-5.0746 0.87791-5.0746 8.5495v7.3355l4.25 0.38279c2.3375 0.21053 4.925 0.45646 5.75 0.54649 0.825 0.09004 3.1875-0.11522 5.25-0.45613zm103.75-4.3582c0-2.75-0.45-5-1-5s-1 2.25-1 5 0.45 5 1 5 1-2.25 1-5zm160-7.893c0-4.3932-5.2385-5.711-8.477-2.1324-1.7278 1.9092-1.7081 2.0038 0.59501 2.8564l3.882 1.4465c3.1061 1.1692 4 0.68412 4-2.1705zm-159.61-0.68878c1.1138-2.9026 0.65702-6.4182-0.83399-6.4182-2.1137 0-2.7925 1.6606-2.0537 5.0244 0.71704 3.2647 1.9427 3.8563 2.8876 1.3938zm-364.39-0.91821c0-0.83333-0.88889-1.5-2-1.5s-2 0.66667-2 1.5 0.88889 1.5 2 1.5 2-0.66667 2-1.5zm512.58-1.386 2.3977-1.886-2.2399-0.60034c-1.232-0.33019-2.7543-0.60649-3.3829-0.614-1.7214-0.02056-2.611 3.2083-1.1409 4.1411 1.7173 1.0897 1.6318 1.1101 4.3661-1.0407zm-510.98-1.8432c-0.33229-0.33229-0.56864 0.25833-0.52522 1.3125 0.04798 1.1649 0.28494 1.4019 0.60417 0.60417 0.28887-0.72187 0.25334-1.5844-0.07895-1.9167zm349.15 1.8057c6.6327-0.06151 8.25-0.37057 8.25-1.5765 0-1.5532-3.8864-1.6555-73.167-1.9269-17.502-0.06855-21.242 0.35078-19.417 2.1769 0.62972 0.63015 70.075 2.098 74.584 1.5765 0.825-0.09542 5.2125-0.20792 9.75-0.25zm31.75-1.0765c1.7967-1.9854 1.7466-2-6.845-2-6.9058 0-8.655 0.29392-8.655 1.4543 0 1.0942 1.6713 1.5409 6.75 1.8041 3.7125 0.19241 6.7928 0.43797 6.845 0.54569s0.9095-0.70414 1.905-1.8041zm15.5 1c-0.825-0.53316-2.625-0.96937-4-0.96937s-3.175 0.43622-4 0.96937c-1.0679 0.69015 0.08425 0.96937 4 0.96937s5.0679-0.27922 4-0.96937zm-383.5-3.1985 2-2.0581-2.5 0.74183c-1.375 0.408-4.1875 0.96301-6.25 1.2333-3.6706 0.48111-4.4891 1.209-3.016 2.6822 1.262 1.262 7.6713-0.44382 9.766-2.5993zm38.741-4.5368c-0.26366-3.4295-0.87577-5.9904-1.3602-5.691-1.3099 0.80956-1.0662 9.841 0.30247 11.21 0.65083 0.65083 1.263 1.0783 1.3602 0.95s-0.03881-3.0393-0.30247-6.4687zm4.3161-0.80398c0.17005-3.8394-0.11036-5.4447-0.90544-5.1835-1.2624 0.41465-2.1289 8.0372-1.1913 10.48 1.0031 2.6141 1.84 0.49997 2.0968-5.2969zm51.693 5.6559c21.756-0.0751 33.75-0.47189 33.75-1.1165 0-0.6506-14.5-1-41.5-1-35.716 0-41.5 0.20347-41.5 1.46 0 1.1839 1.4654 1.395 7.75 1.1165 4.2625-0.1889 22.938-0.39588 41.5-0.45996zm-80.3-1.556c0.65709-0.79174 1.0497-2.7042 0.87245-4.25-0.57629-5.0259-7.8223-3.9959-7.8223 1.112 0 4.1228 4.4609 6.137 6.9498 3.138zm-4.352-0.29604c-1.0902-1.0902-0.62151-2.1814 1.4022-3.2644 1.6786-0.89835 2-0.76049 2 0.85783 0 1.9272-2.2735 3.5354-3.4022 2.4066zm23.82 1.1286c3.1729-1.2176 1.4324-1.8911-4.6723-1.808-7.9562 0.10828-8.569 0.23683-6.746 1.415 1.6726 1.0809 8.971 1.3321 11.418 0.39301zm148.08-0.61357c59.448-0.41798 71.5-0.75135 71.5-1.9779 0-0.80349-9.7165-0.93236-35.25-0.46754-19.388 0.35294-47.062 0.64716-61.5 0.65384-23.682 0.01094-26.25 0.17293-26.25 1.6559 0 1.4376 0.97201 1.5651 7.75 1.0163 4.2625-0.34512 23.95-0.7414 43.75-0.88061zm-176.5-3.3385c0-1.3425-0.45-2.441-1-2.441s-1 1.3766-1 3.059c0 1.7847 0.41658 2.8016 1 2.441 0.55-0.33992 1-1.7165 1-3.059zm468.46 2.6513c2.8958-1.1323-6.5577-2.1014-29.209-2.9944-10.586-0.41732-19.483-0.99473-19.771-1.2831s12.198-0.35843 27.747-0.15562c25.201 0.32869 50.433 2.1226 55.112 3.9182 1.2792 0.49088 1.659 0.05021 1.659-1.9251 0-3.1744-1.1862-3.4051-20.857-4.0575-7.8965-0.26188-14.609-0.72785-14.917-1.0355s1.2032-0.61126 3.3573-0.6747 4.3667-0.2199 4.9167-0.34768 6.9625-0.30088 14.25-0.38465l13.25-0.15231v-10.441c0-10.939-0.78217-12.971-3.9054-10.145-1.7489 1.5828-16.677 7.5095-20.595 8.1766-1.1 0.1873-3.9756 0.82241-6.3903 1.4113-6.2972 1.5359-7.4025 0.65682-1.8436-1.4662 2.6036-0.99434 4.7339-2.1664 4.7339-2.6046s0.93391-1.0932 2.0754-1.4554 1.9131-0.82096 1.7148-1.0193-4.6197 0.99708-9.8254 2.6565c-8.7202 2.7797-24.71 5.9254-29.465 5.7967-1.1-0.02977 3.85-1.5564 11-3.3925 18.368-4.7169 33.601-11.087 45.25-18.924 4.259-2.8652 5.0077-4.8189 3.4035-8.8808-0.63146-1.5988-1.1253-1.4359-4.6797 1.5444-18.458 15.476-38.232 23.498-64.474 26.156-30.226 3.061-56.92 5.0247-89.5 6.5839-33.692 1.6124-33.569 1.8028 1 1.5459 33.816-0.25129 37.412 0.11294 44.935 4.5519 1.8705 1.1036 4.1232 3.1089 5.0059 4.4562l1.605 2.4496 19.727 0.0817c10.85 0.04493 25.802 0.65897 33.227 1.3645 16.366 1.5552 18.939 1.6326 21.462 0.64608zm3.0381-16.68c2.2-0.85138 7.8927-2.4116 12.65-3.4672s9.8202-2.364 11.25-2.9076c3.0684-1.1666 3.5868 0.36342 0.65479 1.9326-2.4887 1.3319-17.047 4.6833-23.555 5.4224l-5 0.56784 4-1.548zm-492.5 9.5873c0-5.3166-0.335-7-1.393-7-1.9253 0-2.607 2.244-2.607 8.5818 0 4.7516 0.24608 5.4182 2 5.4182 1.8095 0 2-0.66667 2-7zm35 4c0-1.65-0.45-3-1-3s-1 1.35-1 3 0.45 3 1 3 1-1.35 1-3zm246 2c0-0.55-1.9984-1-4.441-1s-4.7191 0.45-5.059 1c-0.38091 0.61633 1.323 1 4.441 1 2.7825 0 5.059-0.45 5.059-1zm38.348-0.0533c23.943-0.08539 26.652-0.30584 26.652-2.1689 0-0.90704-62.844-0.14981-63.85 0.76936-0.19257 0.17586-0.01897 0.85558 0.38577 1.5105 0.50936 0.82416 2.6182 1.0034 6.8501 0.58241 3.3628-0.33457 16.846-0.64658 29.963-0.69336zm48.319-0.562c-1.616-0.87581-3.5488-1.2207-4.5-0.80287-1.3125 0.57649-1.0289 0.88656 1.3327 1.457 4.9917 1.2056 6.1553 0.96534 3.1673-0.65408zm13.333-0.8847c-0.275-0.55-3.1481-1.0382-6.3846-1.085-5.2352-0.07561-5.6766 0.06719-4 1.294 2.1467 1.5708 11.184 1.3889 10.385-0.20898zm-365.18-1.0803c1.1465-0.35623 0.87976-3.8573-0.40354-5.2967-0.82365-0.92386-8.4002-1.7504-9.5472-1.0415-1.8038 1.1148-1.7172 6.286 0.11794 7.0432 1.4286 0.58951 6.9378 0.19449 9.8328-0.70503zm332.9-5.1559c-0.22985-1.5201-0.42406-0.51375-0.43157 2.2362s0.18056 3.9937 0.41792 2.7638 0.24351-3.4799 0.01365-5zm11.782 5.7362c0.38055-0.61574-1.3033-1-4.382-1-2.75 0-5.2781 0.45-5.618 1-0.38055 0.61574 1.3033 1 4.382 1 2.75 0 5.2781-0.45 5.618-1zm29 0c-2.7888-1.1984-6.5-1.1984-6.5 0 0 0.55 1.9125 0.96837 4.25 0.92972 3.2915-0.05444 3.799-0.2641 2.25-0.92972zm-272.66-0.66067c26.278-0.63915 27.162-0.72584 27.162-2.6611 0-1.97-0.44485-1.9904-29.25-1.3412-16.088 0.36259-34.762 0.66009-41.5 0.6611-11.583 0.00174-12.25 0.11079-12.25 2.0018 0 1.907 0.66667 2 14.338 2 7.8856 0 26.561-0.2973 41.5-0.66067zm-114.15-6.101c-0.25029-0.95609-0.446 0.06166-0.4349 2.2617s0.21589 2.9822 0.45508 1.7383 0.23011-3.0439-0.02018-4zm47.854 4.6951c0.98865-1.5997 0.50852-1.7492-6.5426-2.0369-5.4259-0.22144-6.5499 0.01242-6.8208 1.4192-0.2773 1.4399 0.62092 1.6843 6.1899 1.6843 3.5829 0 6.8109-0.47994 7.1735-1.0665zm209.21 0.08888 9.25-0.02235v-5.1509l-43.75 0.67066c-24.062 0.36886-45.1 0.82246-46.75 1.008s-9.8204 0.3677-18.156 0.40482c-14.957 0.0666-15.149 0.09553-14.599 2.1972l0.55694 2.1298 52.099-0.60739c28.655-0.33407 56.262-0.61745 61.349-0.62975zm20.25-2.5224c0-2.2963-0.36667-2.5-4.5-2.5s-4.5 0.2037-4.5 2.5 0.36667 2.5 4.5 2.5 4.5-0.2037 4.5-2.5zm42.25 0.90324c22.326-0.60923 23.75-0.76049 23.75-2.5233 0-1.7849-1.1442-1.8686-23.75-1.7372-13.062 0.07591-27.075 0.41237-31.139 0.74768-6.5897 0.54371-7.4833 0.86591-8.2619 2.9789l-0.87303 2.3693 8.2619-0.59361c4.544-0.32648 18.949-0.88524 32.012-1.2417zm58.995-2.9032-0.4779-2.5h-15.383c-14.251 0-15.383 0.13501-15.383 1.8333 0 1.0083 0.3 2.1333 0.66667 2.5s7.5043 0.66667 15.861 0.66667h15.195l-0.47791-2.5zm8.7552 0c0-2.1905-0.43333-2.5-3.5-2.5s-3.5 0.30952-3.5 2.5 0.43333 2.5 3.5 2.5 3.5-0.30952 3.5-2.5zm-180.18-2.8308c0.26396-1.3627-0.51636-1.6692-4.25-1.6692-3.8337 0-4.5733 0.30868-4.5733 1.9087 0 1.6164 0.65079 1.872 4.25 1.6692 3.0492-0.17184 4.3414-0.71114 4.5733-1.9087zm9.1767-0.72817c0-0.51754-0.675-0.94098-1.5-0.94098-1.5464 0-1.9867 1.18-0.86052 2.3062 0.79893 0.79893 2.3605-0.10419 2.3605-1.3652zm10 0.55902c0-0.93333-0.94444-1.5-2.5-1.5s-2.5 0.56667-2.5 1.5 0.94444 1.5 2.5 1.5 2.5-0.56667 2.5-1.5zm3.7708-0.3125c0.59996-1.7999-1.467-1.4216-2.1645 0.39606-0.37373 0.97391-0.15024 1.4311 0.58051 1.1875 0.6535-0.21783 1.3663-0.93043 1.584-1.5836zm8.2292 0.3125c0-0.825-0.675-1.5-1.5-1.5s-1.5 0.675-1.5 1.5 0.675 1.5 1.5 1.5 1.5-0.675 1.5-1.5zm16.481-0.16218c-1.405-1.405-1.8005-1.4437-2.5561-0.25-0.63133 0.99734-0.89843 1.045-0.90925 0.16218-0.00929-0.75899-1.3901-1.25-3.5153-1.25-2.4444 0-3.5 0.45238-3.5 1.5 0 1.1686 1.3413 1.5 6.0714 1.5 5.6601 0 5.9588-0.11261 4.4092-1.6622zm6.5193 0.16218c0-0.825-0.40186-1.5-0.89301-1.5s-1.152 0.675-1.4686 1.5c-0.35062 0.91371-0.00158 1.5 0.89301 1.5 0.80774 0 1.4686-0.675 1.4686-1.5zm50.25-0.20573c-1.2375-0.23835-3.2625-0.23835-4.5 0s-0.225 0.43337 2.25 0.43337 3.4875-0.19502 2.25-0.43337zm-100.25-3.7943c0-1.0833-1.1111-1.5-4-1.5s-4 0.41667-4 1.5 1.1111 1.5 4 1.5 4-0.41667 4-1.5zm22.794-0.38074c0.23462-0.70386-1.1424-1.1193-3.7102-1.1193-2.9032 0-4.0833 0.41969-4.0833 1.4522 0 1.7586 7.1989 1.4511 7.7936-0.33293zm24.206-0.11926c0-0.55-1.8-1-4-1s-4 0.45-4 1 1.8 1 4 1 4-0.45 4-1zm-49.81-5.5c-0.24822-2.1262-0.95444-3.5-1.7992-3.5-0.92258 0-1.3906 1.1779-1.3906 3.5 0 2.7031 0.40964 3.5 1.7992 3.5 1.4674 0 1.7238-0.64547 1.3906-3.5zm22.81 0.03139c0-2.6724-0.34434-3.3365-1.5-2.893-0.85503 0.32811-1.5 1.8195-1.5 3.4686 0 1.9049 0.51233 2.893 1.5 2.893 1.045 0 1.5-1.0521 1.5-3.4686zm23.19-0.03139c-0.22473-1.925-0.80937-3.5-1.2992-3.5s-0.89059 1.575-0.89059 3.5c0 2.204 0.48107 3.5 1.2992 3.5 0.89596 0 1.1724-1.0863 0.89059-3.5zm266.17-13.711c1.6492-2.6145-0.00197-3.2708-2.9552-1.1747-1.4611 1.037-3.8376 2.6669-5.2812 3.6219s-2.6745 2.6157-2.7353 3.6902c-0.09944 1.7567 0.39462 1.631 4.8965-1.2452 2.7539-1.7594 5.4878-3.961 6.0752-4.8923zm-308.86 5.2108c-0.33992-0.55-2.3915-1-4.559-1s-3.941 0.45-3.941 1 2.0516 1 4.559 1c2.7847 0 4.3185-0.38919 3.941-1zm22.862-0.5c0.45872-1.1954-0.33176-1.5-3.893-1.5-3.3054 0-4.4686 0.39045-4.4686 1.5 0 1.0765 1.0992 1.5 3.893 1.5 2.538 0 4.0934-0.52211 4.4686-1.5zm22.393-0.26463c0.2869-0.86069-0.97828-1.2354-4.1716-1.2354-4.2774 0-5.5123 0.7377-3.9126 2.3374 1.1136 1.1136 7.6423 0.22365 8.0842-1.102zm-47.88-1.8604c4.816-0.9632 3.7014-2.375-1.875-2.375-3.7778 0-5 0.36667-5 1.5 0 1.6163 1.9362 1.8628 6.875 0.875zm25.125-1.375c1.1003-0.71109 0.38334-0.97345-2.691-0.98469-2.305-0.00842-4.4691 0.43469-4.809 0.98469-0.80065 1.2955 5.4954 1.2955 7.5 0zm23.313-1.0867c-0.47353-0.47353-2.6502-0.54476-4.8371-0.15829l-3.9762 0.70267 4 0.56599c4.3933 0.62164 6.1419 0.21825 4.8133-1.1104z"/>
</svg>
